<?xml version="1.0" encoding="UTF-8" standalone="no"?>
<!-- Created with Inkscape (http://www.inkscape.org/) -->

<svg
   version="1.1"
   id="svg1"
   width="1080"
   height="1920"
   viewBox="0 0 1080 1920"
   sodipodi:docname="card-background.jpg"
   inkscape:export-filename="card-background.svg"
   inkscape:export-xdpi="96"
   inkscape:export-ydpi="96"
   xmlns:inkscape="http://www.inkscape.org/namespaces/inkscape"
   xmlns:sodipodi="http://sodipodi.sourceforge.net/DTD/sodipodi-0.dtd"
   xmlns:xlink="http://www.w3.org/1999/xlink"
   xmlns="http://www.w3.org/2000/svg"
   xmlns:svg="http://www.w3.org/2000/svg">
  <defs
     id="defs1">
    <color-profile
       name="sRGB-IEC61966-2.1"
       xlink:href="../../../../../../../../Windows/system32/spool/drivers/color/sRGB%20Color%20Space%20Profile.icm"
       id="color-profile2" />
  </defs>
  <sodipodi:namedview
     id="namedview1"
     pagecolor="#ffffff"
     bordercolor="#000000"
     borderopacity="0.25"
     inkscape:showpageshadow="2"
     inkscape:pageopacity="0.0"
     inkscape:pagecheckerboard="0"
     inkscape:deskcolor="#d1d1d1"
     showgrid="false"
     guidehicolor="#2fff00"
     guidehiopacity="0.49803922" />
  <g
     inkscape:groupmode="layer"
     inkscape:label="Image"
     id="g1">
    <path
       style="opacity:0.97;fill:#1a1a1a;fill-opacity:1;stroke-width:1.1069"
       d="m -120.85098,-57.07448 5.42685,2052.48298 1234.60853,-10.0736 -2.7134,-2042.40938"
       id="path6" />
    <path
       style="fill:#0b0b0b;stroke:none;stroke-width:1.0036"
       d="m 315.70914,417.66747 h -1.0041 l -14.4854,-43.13688 -6.5989,-18.0573 c -5.4194,-4.62785 -9.4261,-12.79475 -12.8625,-19.07518 -1.5159,-2.77064 -2.5472,-6.83896 -6.2712,-7.07029 -5.7924,-0.35978 -8.3151,5.14572 -11.3091,9.00158 -9.1128,11.73623 -13.1385,24.45836 -14.5676,39.21392 -5.4055,55.81223 -6.5061,111.55528 -7.1985,167.53161 -21.4625,-20.11731 -47.2748,-35.72199 -69.804,-55.34921 -13.5354,-11.79182 -22.9375,-29.3005 -38.6299,-38.59783 -25.8766,-15.33112 -57.472804,-20.51003 -85.341504,-31.41218 -16.4327,-6.42835 -27.4444,-21.64473 -45.1808004,-24.11509 v 26.08276 l 14.8580004,18.89015 18.7115,25.24992 7.5952,18.0573 c -0.7961,7.40509 4.4548,14.58498 7.2946,21.15661 7.4707,17.28789 19.0309,32.33417 25.5513,50.0694 7.0943,19.29609 7.2254,40.67411 13.5845,60.191 3.1202,9.57641 6.562404,19.08706 11.174304,28.08913 2.7168,5.30296 7.7413,10.01923 8.8534,16.05094 2.121,11.50452 -4.8253,21.96215 -1.7323,34.10823 5.6281,22.1015 26.0963,42.00451 26.6398,65.20691 -17.605,-14.09526 -37.5911,-25.32597 -54.061204,-40.89368 -22.6691,-21.42699 -43.3887,-53.80954 -78.4691004,-55.41191 0,17.45627 2.3957,23.45222 15.0603004,36.11459 L 2.4556356,697.55561 v 16.05093 c 10.7683004,-0.31129 16.2719004,-2.98004 27.1085004,1.00318 v 1.00319 l -27.1085004,6.0191 v 19.06048 c 11.2081004,1.50809 21.6145004,4.17303 33.1326004,2.88023 20.149,-2.26157 36.7758,-8.0731 57.2251,-1.18576 7.940104,2.67425 13.359804,9.05962 20.088104,13.6838 6.4552,4.43656 13.4635,9.32427 18.0685,15.72041 -11.0734,-1.13347 -20.7418,-8.08927 -31.1246,-10.90962 -16.933404,-4.59967 -41.351204,-2.05008 -58.233004,1.54887 -7.638,1.62821 -15.0541,5.91243 -20.7846,11.2209 -3.803,3.5229 -5.6684,9.40374 -11.3440002,10.17805 -7.9291002,12.37545 -7.0281002,22.81092 -7.0281002,37.11778 l 57.2290004,4.02743 17.0683,-8.04016 c -1.0776,-5.64205 10.0978,-15.57836 13.6084,-20.06367 5.818704,-7.43411 9.883304,-15.79205 19.353004,-19.18514 14.9579,-5.35954 38.5956,9.62698 49.1039,18.69752 6.3168,5.4526 8.9895,15.71073 16.3284,19.54811 v 2.00636 c -6.4223,0.63104 -10.9849,-2.67903 -17.0683,-3.74871 -18.8297,-3.31104 -41.7603,-4.96717 -59.237,4.21785 -18.023204,9.4722 -21.288304,27.30417 -29.795904,43.67093 -5.3426,10.27785 -14.6964,20.43129 -22.4324,29.03354 -3.9372,4.37802 -12.6752,5.65784 -18.0529,8.11902 -7.2324,3.30994 -14.288,9.73965 -18.9757002,16.14541 -6.0852002,8.31554 -7.1333002,18.03754 -7.1288002,27.95994 0,3.515 -0.7313,9.0236 3.1414002,10.898 5.3191002,2.5744 10.8067002,-16.393 13.1847002,-19.9229 6.5187,-9.676 18.8357,-27.79984 30.9022,-30.78361 4.6357,-1.14628 9.4033,1.39444 14.0168,1.68748 -4.9488,9.75514 -15.7434,15.53471 -24.0818,22.28133 -5.5178,4.4646 -9.8052,10.1379 -15.0749,14.8365 v 5.016 h -1.004 v -3.0096 h -1.0041 c -7.1321,13.9263 -20.0803004,30.9686 -20.0803004,46.1464 l 7.0281002,-7.0223 c 14.5337002,-1.5452 29.9616002,-13.5321 42.1540002,-20.8378 4.5252,-2.7114 12.2283,-6.1874 14.071,-11.264 l 6.0241,-1.0032 -20.0803,17.0541 c -1.69,9.0141 -14.7237,20.1601 -19.9913,28.1038 -11.188,16.87152 -20.4706,37.59842 -25.1895002,57.16682 l -4.0161002,-2.0064 c 0,12.0917 -2.22260002,35.9602 9.4312004,44.1927 3.9918,2.8198 14.6644,-2.4645 18.6813,-4.3921 16.0092,-7.6823 34.334,-19.8533 43.1727,-35.7879 20.8633,-1.6821 37.973504,-34.73 47.946504,-50.1196 9.1081,-14.05502 20.249,-30.64972 36.391,-37.52032 10.4306,-4.4397 24.9418,-4.804 36.1447,-4.8047 12.7957,-8e-4 24.834,3.3462 37.1486,6.4263 4.4318,1.1084 10.4048,1.0111 13.4504,4.9888 3.9695,5.1843 -1.3858,13.0532 -1.3457,18.8322 0.1259,18.09512 -1.8308,33.15822 6.6006,50.11972 13.1494,26.4531 46.2891,41.6442 72.6603,51.0168 5.3986,1.9188 12.8497,-0.178 17.7771,2.5962 6.5119,3.6662 -3.7884,14.5946 -6.9042,17.3033 -6.2348,5.4204 -13.7734,0.125 -20.9131,0.2292 -21.1427,0.3083 -41.08,-0.3073 -62.2491,2.1774 -18.8274,2.2098 -34.6417,8.1236 -54.2169,5.783 -20.6318,-2.4668 -38.4677,-12.9002 -59.237,-10.6758 -22.8738,2.4496 -44.109204,14.3019 -65.262004,20.7843 -12.6484,3.8762 -26.148,3.1651 -39.1559,4.2148 -10.1266,0.8172 -19.8253,2.9158 -30.1205004,2.9158 v 9.0287 l 59.2370004,-5.4525 30.1206,-6.3575 55.220904,16.8259 c 1.6887,5.7678 17.6132,10.8893 23.0924,13.6265 12.2091,6.0996 23.6318,14.2485 34.0065,23.0361 7.4263,6.2904 15.1925,15.6905 24.2266,19.5157 -5.0658,5.2977 -9.1089,2.8043 -14.8899,-0.2221 -13.4951,-7.065 -26.9162,-11.2258 -41.3351,-16.1346 -37.0337,-12.608 -75.3469,-19.7591 -113.454004,-27.9042 -19.2269,-4.1094 -35.9151,-11.9174 -56.2250004,-11.9174 0,5.1733 -1.53400002,13.3095 1.0319,17.9528 4.8768002,8.8251 18.7235004,13.7528 25.4800004,21.286 14.5273,16.1971 30.3413,35.7852 48.8645,47.3811 24.939704,15.6125 54.869204,21.5819 79.242304,39.0792 21.994,15.7895 41.0572,39.3508 68.2732,46.8484 -7.8903,9.231 -19.7501,8.9276 -31.1245,10.1991 -12.9315,1.4456 -26.9221,4.0657 -39.1567,8.5696 -36.3316,13.3744 -57.7381,48.681 -85.089804,73.936 -15.7596,14.5516 -32.3742,24.2334 -33.3843,47.741 23.3731,1.003 43.9837,-16.973 68.273204,-19.8787 31.5436,-3.7735 63.7134,12.0664 95.3817,12.8418 23.5085,0.5755 44.2961,-14.0275 67.2691,-14.03 1.8865,5.2582 9.0458,6.6621 14.0601,7.6347 13.3829,2.5956 24.9315,-0.5569 38.1488,-1.525 3.8743,-0.2838 18.5495,1.2365 9.0362,5.9285 -1.2575,13.0559 -17.4089,26.71 -24.5031,37.1178 -8.5758,12.5813 -13.4375,28.674 -17.9004,43.1369 -2.377,7.7031 -4.7499,18.5023 -10.8094,24.0764 1.943,8.0834 -1.758,16.9798 0.6135,25.0796 2.9273,9.9975 12.7579,17.3582 15.8226,27.1463 2.1975,7.0186 -2.6709,19.3482 2.51,25.3908 4.1809,4.8761 19.6428,0.9616 25.2306,0.6966 6.9507,-0.3295 12.4903,3.7038 19.0763,4.6304 11.6535,1.6396 22.9792,-0.5737 34.1366,-3.6876 4.8168,-1.3443 13.4669,-1.5794 15.0603,-7.0269 16.696,-1.7068 29.8258,-15.7606 45.1808,-21.2712 15.7269,-5.6442 33.5446,-6.1126 49.0264,-11.6837 22.2853,-8.0192 43.3162,-19.9548 63.4236,-32.252 -2.3246,10.131 -5.8217,19.9686 -8.2909,30.0955 -1.2278,5.0353 -1.5967,10.0085 -5.8738,13.5684 -3.3488,2.7875 -7.731,2.9015 -11.2271,5.2436 -20.9534,14.0376 -46.3824,23.7633 -65.1666,40.8015 -7.0604,6.4042 -18.2031,14.582 -18.8796,24.6539 l -16.0642,23.0732 c 3.5591,9.2343 1.251,15.6057 1.0187,25.0796 -0.4763,19.424 -0.1441,40.4437 14.0415,55.1751 h 1.004 c 24.7536,-24.9397 57.1945,-45.5772 71.9848,-79.2515 12.2919,-27.986 -4.3926,-64.4955 24.4009,-84.2674 1.1983,15.1692 3.3113,35.185 -0.4539,49.9888 -1.9952,7.8445 -6.7496,13.8433 -9.4917,21.2372 -3.8436,10.3638 -4.2794,24.206 -2.9207,35.1114 2.7348,21.9493 13.3327,36.8691 24.4668,55.1605 8.0021,13.146 17.7073,23.9484 28.2736,35.0354 3.4291,3.5982 10.7131,11.2676 15.6917,5.79 5.7514,-6.3279 -0.798,-18.3488 0.085,-25.763 2.5903,-21.7461 4.7246,-49.5101 -3.9077,-70.2229 -4.8132,-11.5491 -12.7183,-22.3242 -18.9755,-33.105 -2.9057,-5.0064 -6.6201,-9.0299 -6.6633,-15.0478 -9.4863,-8.9226 -13.0291,-23.7495 -14.2267,-36.1146 -3.0308,-31.293 7.2919,-56.9186 15.2307,-86.2737 4.5563,3.8459 5.2253,9.1786 8.3591,14.0042 3.7354,5.752 9.391,11.7698 14.1903,16.6928 10.5277,10.7991 25.8246,16.186 32.9861,30.4971 4.0739,8.141 4.1572,19.2685 6.4727,28.0892 4.3646,16.6273 12.2313,31.2673 23.1133,44.4303 9.8592,11.9259 22.9693,22.6503 36.3499,30.4229 7.6391,4.4375 20.3693,9.4149 23.524,18.4822 1.8399,5.2883 -0.3484,11.5887 -0.413,17.0147 -0.1492,12.5388 0.4732,24.7278 2.445,37.1178 3.8461,24.1679 22.11423,41.1894 33.44479,61.2129 8.72816,15.4242 12.00188,33.4471 20.57071,49.1373 2.81087,5.1468 8.46938,15.0529 14.11826,17.4527 4.59068,1.9503 11.83506,0.6046 16.76697,0.6046 l 1.00402,-12.0382 c -5.80999,-3.2183 -6.07411,-10.9436 -7.11723,-16.9644 -2.0551,-11.8615 -6.86898,-23.2852 -9.02452,-35.2012 -0.95406,-5.2741 -4.45122,-11.3723 -0.92655,-16.0509 -3.14001,-10.0547 -2.20077,-19.7958 -3.18248,-30.0955 -2.45415,-25.7481 -3.73798,-53.4543 -0.6484,-79.2515 1.71063,-14.2835 5.82935,-28.6996 5.83891,-43.1368 h 4.01607 l 12.09552,39.7016 -1.9655,27.5116 -0.0751,46.1465 6.00936,119.3788 h 9.03616 c 0,-21.3735 -2.46611,-42.8998 -3.92623,-64.2038 -0.68444,-9.9862 0.73604,-20.1319 -0.26105,-30.0954 -1.87629,-18.7488 -7.07721,-45.0189 -0.83281,-63.2006 5.17501,17.5975 6.74728,37.9447 8.55897,56.1783 2.12772,21.414 6.73202,42.6713 7.51616,64.2037 0.44594,12.2453 -0.95762,37.1061 14.0454,37.1178 l -1.00402,-16.051 h 1.00402 c 3.24608,8.4226 2.51684,16.0138 13.05223,16.051 -4.63966,-35.8978 -29.27339,-69.0081 -25.10044,-106.3374 5.89064,5.4719 7.47131,14.1659 11.38117,21.0668 7.85615,13.8661 12.75925,29.0647 17.38206,44.1401 4.40961,14.3802 10.42618,25.5796 10.39346,41.1305 3.07413,0 7.88523,0.8558 10.52823,-1.0311 4.6563,-3.3241 4.3558,-21.5291 4.5181,-27.0581 0.7144,-24.344 -0.8678,-51.2485 3.1724,-75.2387 2.3506,-13.9579 9.8542,-26.7874 9.8938,-41.1305 9.785,5.1158 17.7506,14.2597 27.1084,20.3958 22.5809,14.8064 47.9821,25.5579 73.2933,34.4774 9.15856,3.2275 19.37152,8.8254 29.11632,9.3305 -0.033,-11.6222 -8.322,-20.9857 -13.5688,-31.0987 -9.18892,-17.7111 -17.66562,-35.5746 -27.08282,-53.1293 -3.8184,-7.1175 -10.3168,-14.9118 -12.9632,-22.3192 -3.2513,-9.101 1.2804,-25.1592 1.3875,-34.9016 0.1258,-11.4375 -6.2032,-27.7984 -11.0256,-38.121 12.8485,5.1101 23.8206,18.9658 34.4233,27.8027 12.20906,10.1758 26.41402,17.9735 40.87782,24.4595 18.5436,8.3159 38.928,2.3414 58.233,5.9224 0,-12.0176 -4.7115,-18.8894 -17.0683,-22.07 l 1.0041,-2.0064 -9.0362,-4.0127 -3.0121,-5.0159 28.1125,6.0191 v -10.0318 l -12.0482,-5.016 12.0482,-2.0063 v -7.0223 l -47.1888,1.8214 -25.1004,-7.8405 v -3.0096 l 44.1767,-6.8419 28.1125,4.8356 c 0,-3.6633 1.0439,-9.3004 -1.0318,-12.5111 -6.0142,-9.3029 -28.8561,-14.6501 -39.1289,-15.654 -22.2165,-2.1709 -44.9176,-1.8805 -67.26892,0.2463 -18.1858,1.7304 -35.8131,7.1358 -51.2049,-6.1895 l 36.1446,-1.1634 60.41122,-29.7495 30.9542,-9.8407 15.0603,-1.3801 c -3.6902,-12.5733 -17.3453,-10.414 -27.1085,-14.5307 -32.738,-13.804 -62.26192,-12.326 -92.06802,7.2949 -8.3304,5.4836 -13.0198,15.5552 -21.3858,20.2772 -0.888,-4.131 0.6777,-8.0084 -0.1952,-12.0382 -3.7945,-17.518 -13.9169,-36.4233 -23.9918,-51.0725 -7.066,-10.2741 -19.8592,-19.1776 -25.0099,-30.1853 13.2011,0 35.3113,-7.121 47.1889,-1.3198 23.9759,11.7102 38.6587,48.3124 71.28516,36.4312 l -25.10036,-19.0605 c 6.6335,2.5868 11.0699,-5.3216 12.5556,-11.035 3.4838,-13.397 1.9887,-32.797 -1.2604,-46.1464 -4.0189,-16.5122 -14.7545,-28.1375 -20.7629,-43.3073 -4.4643,-11.2713 -3.3512,-23.7889 -7.6207,-34.941 -5.0033,-13.0688 -13.1393,-29.9126 -22.3697,-40.5136 -6.8842,-7.9065 -16.1092,-13.9202 -22.791,-21.6838 -8.8686,-0.8732 -20.7085,-11.7497 -29.1165,-15.8768 -14.124,-6.9327 -29.99209,-9.1977 -45.1808,-12.4237 -4.72797,-1.0042 -21.16691,-0.8275 -22.47341,-6.9951 -0.86963,-4.1054 7.83959,-7.9568 10.4252,-9.7355 10.05176,-6.9143 16.14578,-15.9229 20.41886,-27.1981 3.48569,-9.1977 3.37042,-18.7247 5.52834,-28.0891 2.83441,-12.3001 8.22156,-25.2886 7.01495,-38.121 -0.98336,-10.4582 -8.67424,-20.959 -8.3343,-31.0987 0.38906,-11.6049 1.72626,-23.3073 6.16437,-34.1082 2.27338,-5.5327 7.10834,-11.8191 3.73405,-17.9482 -2.8635,-5.2013 -8.65799,-3.401 -13.4419,-2.5056 -13.97334,2.615 -27.10524,3.7132 -41.16473,5.2396 -23.33103,2.5331 -45.26192,12.778 -67.26918,20.2758 -15.16469,5.1665 -33.65449,10.3051 -46.73179,19.9436 -4.389,3.2349 -12.1503,7.9056 -15.0773,12.4121 -4.1199,6.3432 -4.2958,12.4638 -10.8063,17.6424 -5.8865,4.6824 -14.0279,5.0165 -19.7542,10.1472 h -1.004 c -10.8513,-22.11 -22.8173,-46.9382 -43.1581,-62.1037 -13.8256,-10.308 -26.4098,-15.6769 -37.9598,-29.11 -2.4686,-2.8712 -8.469,-7.1309 -8.7789,-11.1907 -0.2667,-3.4939 5.7875,-6.8971 8.0825,-8.9636 8.3437,-7.513 16.0445,-15.2124 23.8679,-23.225 26.4463,-27.0858 53.6627,-53.70322 79.5467,-81.36312 6.2841,-6.7153 23.852,-12.5622 26.5925,-20.7951 10.1033,-1.0898 21.6125,-8.7721 31.1245,-12.6924 6.42524,-2.6481 13.70179,-2.9495 20.06569,-5.5531 20.00076,-8.18278 38.28749,-17.35133 60.25577,-19.70145 12.70672,-1.35935 28.35044,-0.60978 40.1607,4.55076 6.852,2.994 13.92069,10.27889 21.08438,11.32609 l -1.004,4.0127 c 6.617,-0.024 10.3865,5.0305 14.5295,9.7454 9.6416,10.9724 17.9709,25.4583 24.6458,38.4074 3.5739,6.9333 8.3877,18.6375 18.0537,17.0542 l 4.016,-14.0446 -8.0321,-20.0636 -8.0321,-36.1147 -12.0483,-25.07961 -2.008,-12.0382 -15.0603,-22.07003 -9.0361,-16.05094 -20.08036,-9.02865 -32.12856,-11.03501 -12.04821,-5.01592 -22.08839,-3.00955 -25.10044,-22.07003 -21.08437,-7.02229 c -4.79666,-0.5104 -24.28731,-3.86933 -25.10041,2.00637 -17.6493,0.80799 -26.3198,15.67021 -40.2367,22.8185 -9.8276,5.04788 -20.6885,3.44428 -28.0365,13.2961 h -1.004 c -10.8469,-21.18453 -19.4236,-35.30135 -40.1608,-48.01418 -5.9943,-3.67486 -10.8377,-7.52816 -18.0723,-8.16408 l 10.0402,-13.04139 c 1.9591,-9.02093 9.329,-14.91145 14.6032,-22.07003 6.232,-8.45836 11.5741,-19.04665 14.6752,-29.09232 4.1807,-13.5426 2.492,-30.04173 5.3091,-44.14006 3.8402,-19.2187 10.4946,-37.84715 13.5155,-57.18145 3.0343,-19.41941 1.517,-40.67925 0.1797,-60.191 -0.9351,-13.64302 0.9142,-27.45002 0.9142,-41.13051 0,-5.39517 0.8972,-12.56514 -3.3165,-16.74919 -3.3901,-3.36628 -8.3795,-3.32574 -10.9156,0.83296 -10.7595,17.64278 -16.2708,36.23412 -30.2817,52.18647 -21.6874,24.69274 -45.6552,48.08838 -65.681,74.11861 -24.0759,31.2945 -42.8359,66.98306 -55.4681,104.29237 -7.4957,-3.28826 -13.7443,-9.30381 -22.0884,-10.77099 -19.7108,-3.46595 -40.0034,11.96301 -49.1969,28.82829 h -1.004 l -15.0602,-43.13688 -20.0804,-13.04138 c 1.9244,-8.07592 0,-16.80577 0,-25.07958 0.01,-19.72581 -0.917,-41.70767 2.3334,-61.19419 2.6188,-15.69983 9.9318,-28.37005 15.0921,-43.13688 11.201,-32.05337 21.5296,-66.64703 25.5621,-100.31833 6.5803,-54.94486 -3.0924,-116.3068 -15.7776,-169.53798 -3.0273,-12.7034 -9.0697,-24.72347 -12.1497,-37.11778 -7.3828,-0.91195 -11.3031,2.2137 -18.0723,2.97392 -5.7144,0.64169 -8.4188,-3.75043 -13.7805,1.43044 -10.3694,10.01971 -13.3566,34.31911 -16.6802,47.76117 -9.2886,37.56782 -28.699,80.30071 -23.7562,119.37882 m 64.2571,-157.49978 c 2.3816,18.30344 12.186,35.98724 15.5847,54.26166 9.6815,52.05654 14.0974,105.73224 8.3304,158.40928 -3.5424,32.35695 -23.2437,62.28284 -28.9352,94.30315 -5.2042,-5.1118 -1.3335,-14.45187 -1.0436,-21.06685 0.79,-18.02473 -0.9645,-36.16958 -0.9645,-54.1719 0,-17.71283 -2.7434,-35.48859 -1.9685,-53.16871 1.1336,-25.86356 5.6032,-51.25542 4.9659,-77.24512 -0.8098,-33.02153 -6.7812,-68.67789 1.0187,-101.32151 h 3.0121 m -19.0764,1.00318 h 1.004 c 0.7979,6.31362 -2.4825,12.03343 -3.8812,18.0573 -3.2421,13.96277 -5.7292,28.81017 -7.1234,43.09745 -2.092,21.43803 -7.256,42.8905 -8.982,64.24316 -2.2628,27.99424 -1.0527,56.23546 -1.0977,84.2674 -0.036,22.13506 -1.0696,44.24195 3.012,66.2101 -3.2412,-2.8299 -3.5972,-11.71589 -4.1965,-16.05486 -1.686,-12.20485 -3.6117,-25.18293 -6.7082,-37.11386 -3.3781,-13.01579 -8.1571,-26.65526 -9.0857,-40.12733 -2.6626,-38.62745 7.1704,-79.2816 16.6267,-116.36926 3.5477,-13.91427 7.6956,-27.35083 11.7313,-41.13052 2.4615,-8.40459 3.7763,-17.63799 8.7007,-25.07958 m 4.0161,49.15598 c 0,24.14658 2.5863,48.04908 1.9933,72.2292 -0.7388,30.12906 -4.0013,60.01294 -4.0013,90.2865 0,27.59734 5.5158,59.16639 0,86.27376 h -2.0081 c -3.8139,-14.57383 -8.992,-28.10174 -11.11,-43.13688 -3.7405,-26.55264 -1.5183,-53.56059 -0.1441,-80.25466 1.0516,-20.42712 1.2411,-40.79266 4.0548,-61.19418 2.0968,-15.20365 4.0626,-30.03918 6.7337,-45.14325 1.2147,-6.8686 0.4081,-12.9297 4.4817,-19.06049 m -90.3615,35.11142 c 3.9663,3.5071 6.7115,9.75483 6.0241,15.04775 4.8695,2.99828 6.2793,8.82647 9.088,13.61877 9.2094,15.71332 12.9418,35.43778 18.5364,52.59133 15.2631,46.7984 26.1724,97.09423 25.5846,146.46476 -0.3392,28.48945 -7.0243,56.54392 -7.0243,85.27058 -6.8951,-2.89566 -9.7269,-12.2105 -11.3161,-19.06048 -3.7581,-16.19849 -6.6762,-31.43276 -6.7569,-48.1528 -0.2782,-57.66663 -8.238,-112.59398 -21.4215,-168.5348 -4.3505,-18.46068 -7.3303,-36.2662 -10.3422,-55.00474 -1.0865,-6.75949 -5.1275,-15.66482 -2.3721,-22.24037 m -12.0482,21.06685 c 0,31.85939 0.1685,63.61336 -0.01,95.30241 -0.087,15.93436 -2.4043,32.20742 -0.8948,48.1528 1.2799,13.52007 6.4792,27.79008 9.308,41.13052 5.8573,27.62207 14.3301,54.98968 24.5179,81.25784 4.0016,10.3179 15.7827,20.61596 16.2703,31.09869 -4.7112,-3.27394 -8.0133,-9.87349 -11.5059,-14.45554 -8.1831,-10.7367 -15.5645,-20.78556 -21.9362,-32.69408 -8.3434,-15.59355 -17.422,-29.83417 -22.2247,-47.14961 -11.2663,-40.61938 -5.9492,-86.96603 -3.1143,-128.40747 1.1719,-17.13151 3.9687,-34.06929 5.3943,-51.16235 0.6675,-8.00342 -0.8375,-16.00819 4.1904,-23.07321 m 11.0442,32.10186 15.3035,66.2101 8.9633,91.28968 1.9313,40.12733 0.9103,23.07322 h -1.004 c -22.7309,-50.99629 -29.1165,-111.19881 -29.1165,-166.52843 0,-17.88733 -1.2327,-36.48797 1.004,-54.1719 h 2.0081 m -208.835704,90.2865 c 7.2266,2.20181 13.2299,12.20132 18.0684,17.7972 15.898904,18.38757 13.511904,37.49006 14.074804,60.4511 0.2412,9.83369 1.8096,21.53843 -1.0187,31.09868 h -1.004004 l -4.0161,-14.04457 c 4.854004,-20.61008 -13.3526,-43.33967 -22.5292,-60.19099 -10.1938,-18.71931 -13.1458,-40.42063 -23.2249,-58.6065 -10.7885,-19.46595 -28.2804,-35.18575 -38.5834002,-54.75322 8.0303002,-1.44036 17.2868002,8.03833 22.5175002,13.24736 13.6762,13.61927 19.6344,27.63138 27.3123,44.93728 2.8868,6.50685 7.6267,12.9117 8.4033,20.06366 m -62.2491004,-60.191 v 2.00637 h 2.008 l -2.008,-2.00637 M 161.08534,560.1195 l 2.008,3.00955 c -9.5187,-1.47147 -17.8715,-15.48493 -24.4079,-22.14976 -22.8574,-23.30638 -41.2371,-49.00964 -62.247604,-73.83071 -7.8861,-9.31655 -23.5558,-17.33823 -22.7824,-31.42381 l 24.1863,6.76217 19.374504,5.12969 11.7104,19.20682 26.7181,44.56586 18.0103,31.63663 7.4303,17.09356 M 42.611236,445.7566 l 1.004,1.00318 -1.004,-1.00318 m 74.297304,8.02547 c 4.9664,5.9237 11.9027,9.43141 17.647,14.45639 10.023,8.76806 19.3792,18.27185 28.7973,27.6773 6.1046,6.09638 14.8871,13.77099 14.8008,23.07322 10.419,7.8179 15.4913,30.25592 19.9943,42.1337 12.9466,34.15011 26.0846,68.24389 39.2427,102.3247 -11.7785,-5.6614 -17.6878,-25.95492 -25.3871,-36.15404 -9.7109,-12.86394 -23.6064,-25.86062 -30.999,-40.12733 -3.1501,-6.07898 -3.1846,-14.40202 -6.1759,-21.02741 -9.5443,-21.13861 -21.6083,-41.33539 -33.8539,-61.02385 -7.5289,-12.10494 -14.2233,-24.44267 -20.5886,-37.27342 -2.4161,-4.8702 -6.756,-8.37019 -5.4856,-14.05926 h 2.008 m -67.269204,1.00318 1.004,1.00318 -1.004,-1.00318 m 46.184804,54.1719 -3.012004,-3.00955 3.012004,3.00955 m 2.008,0 2.0081,4.01273 -2.0081,-4.01273 m 4.0161,5.01591 c 16.9611,13.66483 31.0493,33.89712 45.5411,50.15917 19.7156,22.12416 39.3266,41.8578 54.2021,67.75124 2.8828,5.01788 7.4586,7.78717 9.6947,13.50661 -12.445,-0.0439 -34.8479,-15.46938 -44.4317,-23.5802 -3.4748,-2.94073 -5.5694,-8.36027 -9.0849,-10.75642 -3.0426,-2.07384 -8.1909,-1.2181 -11.7438,-2.82145 -9.4838,-4.27969 -16.3667,-11.83444 -25.112,-17.0758 -3.9069,-2.34153 -10.0947,-3.02449 -13.4396,-5.94476 -3.3109,-2.89065 -1.6098,-12.08168 -1.6098,-16.0633 0,-11.59821 0.3505,-23.65661 -1.6207,-35.11142 -1.0271,-5.96865 -4.7692,-14.35597 -2.3954,-20.06367 m 91.3656,5.01592 36.3414,27.42651 3.7279,13.70401 7.2086,35.11141 9.398,59.18782 6.5772,35.11141 h -1.004 l -14.628,-43.13688 -22.6949,-60.191 -14.3244,-36.1146 -13.6138,-31.09868 h 3.012 m 440.7637,8.02547 c 11.5572,48.37126 4.2832,108.56801 -30.9541,145.48791 -13.1555,13.78348 -25.6491,30.02704 -43.3432,38.31518 -2.7606,1.29304 -15.9377,8.0971 -17.8299,4.41844 -1.7268,-3.35709 3.2962,-8.98175 4.9171,-11.62184 6.6698,-10.86309 13.4364,-21.97256 19.5621,-33.14448 16.128,-29.41377 30.7322,-58.95147 44.9576,-89.28332 7.3385,-15.64718 16.2347,-26.39797 19.6783,-44.14006 h 3.0121 v -10.03183 m -16.0643,14.04456 c -17.2451,43.79376 -37.1023,84.84197 -59.4555,126.4011 -5.4834,10.19483 -11.1921,20.00966 -16.9893,30.02043 -2.8875,4.98628 -4.7595,11.2459 -9.9007,14.11963 0,-33.58839 13.6669,-64.78933 23.4185,-96.30559 1.7276,-5.58327 5.3946,-10.33908 6.702,-16.05094 14.9114,-8.92296 22.3912,-32.54675 39.1567,-39.12414 l -2.008,-2.00637 16.0643,-18.0573 3.012,1.00318 m -272.0888,4.01274 8.0322,26.08276 c -10.1545,-3.29108 -11.6377,-17.51652 -8.0322,-26.08276 m -256.024404,21.06685 1.004,1.00318 -1.004,-1.00318 m 156.626804,5.01591 c 4.3991,6.43142 5.3979,14.12147 8.816,21.06293 5.5168,11.20279 12.8728,21.80761 18.7688,32.80784 10.2804,19.17989 26.2072,35.21 32.4478,56.47939 4.2924,14.62968 -3.4859,35.44145 -20.8899,35.83907 -14.3063,0.32685 -12.8777,-22.10138 -16.6972,-30.82315 -11.0737,-25.28654 -13.1772,-54.41693 -18.4303,-81.25785 -1.7835,-9.11338 -7.1774,-25.29902 -4.0152,-34.10823 m 88.3534,124.39473 h -1.004 c -5.4772,-10.25495 -0.2223,-26.07615 0.8336,-37.11778 2.5786,-26.96434 7.045,-54.39097 8.2026,-81.25785 14.7529,1.69655 8.0321,24.5791 8.0321,34.10823 0,18.06833 2.0081,36.03794 2.0081,54.1719 0,6.38182 1.6869,16.21638 -1.9964,21.84471 -3.2466,4.96093 -11.2192,5.6069 -16.076,8.25079 m 30.1206,-114.3629 1.004,26.08277 -2.008,32.10187 h -2.0081 l -0.1704,-43.13689 3.1825,-15.04775 m 246.9883,2.00637 1.004,1.00318 -1.004,-1.00318 m -467.8721,32.10187 -7.0282,7.02228 c 1.6937,11.11046 -13.6759,17.52473 -17.0683,27.08595 -13.849,-1.59001 -14.2616,-26.76682 -14.9704,-37.11778 -0.2216,-3.23634 -1.6503,-13.21185 2.2374,-14.72029 2.5704,-0.99731 7.3067,1.84875 9.721,2.77112 9.8227,3.75312 17.5342,11.13653 27.1085,14.95872 m 138.5544,0 1.004,1.00318 -1.004,-1.00318 m 262.0485,7.02228 -1.004,1.00318 1.004,-1.00318 m -3.012,2.00637 c 1.6981,9.76659 -5.0432,20.67572 -7.8346,29.80907 -4.7069,15.40031 -6.5625,30.65305 -9.1531,46.43286 -0.9428,5.74259 1.5701,20.4074 -2.6589,24.33491 -4.2671,3.96277 -26.025,1.26524 -31.5583,-0.25851 6.1589,-19.17253 12.7923,-37.0835 21.8188,-55.17508 3.5295,-7.07409 6.9181,-16.30467 14.3258,-20.06367 -0.901,-8.34705 9.3357,-19.57788 15.0603,-25.07958 m -287.149,78.24829 -2.008,3.00955 h -1.0041 l -51.2049,-19.63873 -19.198,-8.01297 -6.1496,-16.48836 -3.7689,-16.05093 c -4.2636,-2.5965 -5.9512,-8.27921 -5.0201,-13.04139 19.9731,9.31827 45.8527,20.60359 61.6279,36.11852 10.3788,10.20781 14.581,25.30099 26.7257,34.10431 m -113.454,-65.20691 c 1.6489,6.52093 -1.1198,12.72262 -2.493,19.06048 -1.9256,8.88684 -0.4572,22.54653 -7.5472,29.09232 -5.0811,-14.87595 -7.3284,-40.3905 10.0402,-48.1528 m 14.0563,0 c 2.8952,5.70034 9.6156,12.9935 8.5418,19.93435 -0.8417,5.44109 -13.9163,14.83712 -18.582,17.18343 l 7.0281,-37.11778 h 3.0121 m 208.8356,18.0573 v 5.01592 h -1.0041 l 1.0041,-5.01592 m 258.0325,6.0191 c 1.4221,10.25765 -1.0108,26.9821 -6.7477,35.81347 -5.3505,8.23647 -13.2227,13.91096 -18.3528,22.37116 l -14.0562,-9.02865 -4.0161,1.00318 15.6351,-17.47525 27.5377,-32.68391 m -503.0128,9.02865 3.0121,19.06048 c 10.3325,7.24443 7.4838,19.49044 7.0281,30.0955 h -1.004 c -6.2974,-11.92945 -17.9934,-36.27698 -9.0362,-49.15598 m -85.341504,1.00318 1.004,1.00319 -1.004,-1.00319 m 133.534404,0 c 0.5198,4.07837 -0.3513,6.09882 -4.0161,8.02547 3.6782,6.02192 -12.003,13.58375 -17.0683,14.04456 l -4.0161,4.01274 c -2.7388,-11.33125 15.6144,-23.68686 25.1005,-26.08277 m 154.6186,0 c 0.4171,9.70414 5.1925,24.29817 -6.0241,29.09232 l -1.004,-5.01592 c 3.49,-2.09221 3.0204,-15.80222 0,-15.04775 l 4.0161,-9.02865 h 3.012 m 274.0968,0 1.004,1.00319 -1.004,-1.00319 M 58.675536,709.59381 c 1.8186,-0.042 4.2418,0.34778 2.008,2.00636 v 1.00319 l 7.0281,4.01273 -1.004,4.01273 c -18.1516,-7.42357 -31.829,-16.26952 -46.2196,-29.39344 -2.3542,-2.14683 -12.3855002,-11.0638 -11.2589002,-14.5175 1.4518002,-4.45053 12.7135002,1.30566 15.3098002,2.45995 12.0793,5.37068 28.3429,18.39455 34.1366,30.41598 m 537.149304,-31.09868 1.004,1.00318 -1.004,-1.00318 m -334.3378,40.12733 -1.004,2.00636 7.0281,2.00637 c -20.2452,10.99558 -41.0352,11.01702 -63.2531,13.11645 -6.5119,0.61535 -15.7633,5.06478 -22.0846,2.92138 -5.7405,-1.94649 -21.9659,-13.66494 -22.2727,-20.09085 -0.3055,-6.39774 7.2506,-14.78165 10.4121,-20.02338 1.8339,-3.04078 3.965,-11.1658 7.2675,-12.63654 4.8381,-2.15465 17.3056,7.91318 21.9443,10.05192 20.0079,9.2252 41.9104,13.33798 61.9624,22.64829 m -129.5183,-30.76425 c 0.7766,0 0.1607,0.49926 -0.3347,0.33432 l 0.3347,-0.33432 m 256.0245,95.97116 h -3.0121 l -7.0281,18.0573 c -6.2369,-3.19263 -14.1965,-15.39051 -22.5571,-8.42334 -10.8256,9.02131 5.3272,23.8283 4.3143,34.50611 -2.0059,21.14681 -10.4919,39.32436 -17.3192,59.18781 -3.2637,9.49534 -4.3896,19.60341 -7.6108,29.09232 h -1.004 c -4.6324,-10.96877 -5.9083,-33.7351 -2.1583,-45.14252 2.5054,-7.62122 9.4037,-9.14535 9.2322,-18.05803 -0.2117,-10.99901 -11.6275,-24.07713 -23.1381,-22.07003 -10.0033,-31.54113 -8.0564,-64.739 -0.2395,-96.3056 3.4803,-14.05424 5.6424,-33.53745 24.3359,-29.09232 2.6867,-4.7094 7.1204,-6.84324 12.0482,-8.83749 17.4023,-7.04273 28.9112,-0.0712 36.8891,16.86369 8.2856,17.58804 7.8315,35.72678 2.9199,54.17117 -1.5318,5.75201 -5.3409,9.92603 -5.6724,16.05093 m -228.916,-85.27058 -13.8099,26.2825 -5.2664,6.82255 v -20.06367 l 19.0763,-13.04138 m -36.1446,2.00637 v 3.00955 h 1.004 l -1.004,-3.00955 m 196.7874,12.0382 v 2.00636 c -6.0677,5.02951 -8.4957,15.57432 -10.1563,23.07322 -3.9162,17.68331 -4.9039,32.92332 -4.9039,51.16235 l -8.3436,-14.04457 -7.9602,-20.06366 -11.8087,-23.07322 c 4.2133,-1.7372 7.4091,-2.15503 10.0402,2.00637 l 5.02,-1.00319 -2.008,-5.01591 c 6.3986,-5.53784 21.6398,-18.00796 30.1205,-15.04775 m -239.960204,-1.00319 1.004,1.00319 -1.004,-1.00319 m 530.121304,6.0191 -8.0322,15.04775 c -5.3362,-5.90656 2.5947,-12.44758 8.0322,-15.04775 m -136.5464,10.03184 v 1.00318 c -11.1764,7.84362 -21.7851,17.39651 -30.1391,28.22384 -3.7488,4.85868 -9.3309,17.26388 -15.0417,18.92578 l 1.004,5.01591 -7.0281,5.01592 c 6.3613,-16.58853 1.5137,-35.00182 6.5865,-51.16235 6.3321,-20.17241 31.9498,-17.0344 44.6184,-7.02228 M 62.691536,726.64792 v 1.00319 c -11.6815,5.4264 -25.4344,7.02718 -38.1526,7.02228 -5.055,-0.002 -10.9187,0.56307 -14.0563,-4.01273 l 32.1286,-10.63789 20.0803,6.62515 m 528.113204,5.01592 -2.008,3.00955 c 3.5317,4.38978 3.3675,8.39713 -1.004,12.0382 l -3.0121,-10.03183 -19.0763,-9.82904 -26.1045,0.80039 c -2.6533,2.97514 -6.0884,5.90705 -10.0401,4.01273 13.311,-5.99571 37.2469,-16.15588 52.023,-9.30186 3.8026,1.7639 6.0228,6.59539 9.222,9.30186 m -540.161404,-7.02228 1.004,1.00318 -1.004,-1.00318 m 104.417904,33.10505 v 10.03183 l -2.0081,11.03502 h -1.004 c -7.963,-15.09601 -9.1542,-35.12245 0,-50.15917 4.5204,1.83431 15.6139,8.22398 15.4406,14.00513 -0.071,2.38575 -10.1534,13.50783 -12.4285,15.08719 m 350.402,-23.07322 v 2.00637 c -9.6366,7.45089 -17.6603,18.62159 -28.1132,24.72972 -12.1668,7.10959 -32.6276,10.02925 -40.16,23.42307 l -3.012,-1.00318 c 6.8917,-17.93251 22.278,-27.78041 32.1286,-43.13688 l 3.012,1.00318 c 3.2584,-13.04065 10.3096,-8.30638 20.0804,-7.50918 5.3901,0.43987 10.7947,-0.65797 16.0642,0.4869 m -208.8356,59.18781 c -7.8392,-1.05033 -13.5179,-8.38757 -18.816,-13.73963 -8.6993,-8.78778 -19.1442,-18.55597 -29.4667,-25.40693 -5.8464,-3.88023 -15.3735,-5.7509 -18.9864,-12.01578 l 24.0964,-5.31312 13.7951,-3.67292 9.9116,15.00514 19.466,45.14324 m 194.7794,-28.08913 c 2.4268,-6.24381 10.3622,-9.24687 15.7776,-12.61571 14.5781,-9.0687 39.6822,-22.18209 57.5149,-18.02155 7.5902,1.77088 20.7841,23.64731 14.9828,31.01971 -2.656,3.37533 -18.9613,-2.89175 -23.0142,-3.73096 -22.2656,-4.61082 -43.2216,2.40252 -65.2611,3.34851 m 90.0269,-30.76425 0.6693,0.33432 -0.6693,-0.33432 m -106.0912,2.67512 1.004,1.00318 -1.004,-1.00318 m -54.2169,6.0191 c 4.1745,18.47856 -9.879,37.96556 -7.0282,56.17826 -7.3235,8.13887 -9.6409,24.69433 -12.6408,35.11142 -4.9232,17.09527 -12.9844,33.336 -18.548,50.15916 -2.8478,8.61095 -6.654,26.56232 -14.996,31.09869 0,-45.7542 10.3946,-85.82276 26.051,-128.40747 4.6547,-12.66029 14.1416,-38.49924 27.162,-44.14006 m -149.5986,41.13051 12.0482,9.02865 v 2.00637 c -8.8995,6.97795 -21.8699,26.46717 -13.2096,37.89185 3.5511,4.68441 10.8117,0.16115 12.9958,5.39444 7.8391,18.78372 15.2068,42.3502 19.2901,62.04796 -3.4145,-1.22711 -4.851,-2.34583 -5.02,-6.0191 -15.5574,-7.46473 -27.4724,-35.06316 -30.2112,-51.12292 -0.7836,-4.59453 -5.0331,-8.56538 -2.9214,-13.08081 h -3.0121 c -2.3509,-9.8659 1.4289,-26.12012 -8.3079,-33.24674 -4.8877,-3.57739 -10.0983,0.0931 -13.0128,4.2481 -4.629,6.59956 -6.6771,19.41353 -3.6356,26.99227 1.982,4.93889 5.3233,14.25348 10.0014,17.10677 3.8657,2.35783 8.895,-1.70867 11.97,2.27333 6.8213,8.83358 8.7046,22.16604 14.6907,31.76828 7.7629,12.45261 22.4408,23.52075 27.4509,37.13175 -8.7625,-6.29408 -15.5524,-15.39694 -23.1823,-22.98418 -6.9541,-6.91527 -15.3298,-12.61671 -21.4825,-20.33774 -5.5253,-6.93362 -6.6317,-17.00097 -13.387,-23.16531 -11.5809,-10.56795 -12.4602,11.27125 -16.928,9.12932 -5.7381,-2.75092 -11.389,-12.55841 -16.361,-16.95432 -17.2244,-15.22886 -34.4373,-35.30196 -42.5135,-57.10478 -2.8192,-7.61082 -5.6736,-20.30271 -1.3728,-27.91341 3.4837,-6.16482 14.4479,-7.9995 20.7691,-9.57897 25.7421,-6.43203 44.563,1.92824 65.3921,17.4968 5.6177,4.19899 18.7632,12.21454 19.9494,18.99239 m 252.0084,-36.11459 1.004,1.00318 -1.004,-1.00318 m -111.446,2.00636 -1.004,1.00319 1.004,-1.00319 M 66.707636,767.77844 v 2.00637 l -2.008,-2.00637 h 2.008 m 21.0844,0 v 3.00955 c -5.8366,0.45653 -11.9636,1.49804 -17.0683,-2.00637 l 17.0683,-1.00318 m 509.036804,18.0573 v 1.00318 c -39.6536,14.18748 -83.6693,12.00808 -121.4853,32.32792 -17.7585,9.54224 -37.5934,21.85708 -50.8641,37.18196 -6.797,7.84913 -11.8757,22.27356 -20.4219,27.7989 0.2619,-23.7062 13.6971,-48.93727 28.9065,-66.1954 7.565,-8.584 15.4845,-18.2116 24.9246,-24.83417 39.3943,-27.63665 96.9261,-30.72788 138.9402,-7.28239 m -538.153304,-8.02547 -9.0362,4.51433 -21.9211,10.03183 -2.1753,-2.50796 v 3.00955 l -11.0442,4.01273 c 3.6532,-7.32794 13.6489,-20.17718 22.2588,-21.80136 6.9609,-1.31312 15.0445,1.81607 21.918,2.74088 m 402.611004,-3.00955 -1.0041,1.00319 1.0041,-1.00319 m -372.490504,5.01592 c -0.9451,5.29414 -3.0961,9.61241 -8.0322,12.0382 -1.3599,-6.98995 1.4024,-10.20095 8.0322,-12.0382 m 194.779404,3.00955 1.004,1.00318 -1.004,-1.00318 m -211.847704,4.01273 c -1.748,8.76892 -10.15,26.51284 -19.0763,29.09232 0.9231,-5.9613 13.4903,-27.89847 19.0763,-29.09232 m 370.482404,4.01273 v 1.00319 l -28.1125,34.10823 c -0.6057,-10.81361 15.5631,-37.42981 28.1125,-35.11142 m 200.8035,67.21329 c -10.4983,-3.33701 -19.6683,-14.55486 -30.1205,-19.35696 -25.8725,-11.88672 -54.7413,-17.63334 -82.3294,-23.77993 v 1.00319 h 2.008 v 1.00318 l -18.0723,-3.00955 c 3.88,-5.51003 20.4798,-7.319 27.1085,-8.0758 15.9025,-1.81558 47.5447,-4.30259 59.237,-16.0006 22.6103,9.02644 41.6803,44.57063 42.1687,68.21647 m -592.370304,-65.20692 -3.012,7.02228 c 1.5922,16.13287 -22.6014,15.05277 -32.1286,11.03502 v -2.00637 l 35.1406,-16.05093 m 693.776134,10.03183 v 2.00637 c -25.68203,19.81496 -56.68953,48.01736 -70.28123,78.2483 -8.6528,-2.38341 -21.7497,-12.76952 -19.3971,-23.07322 1.754,-7.68196 9.5357,-15.78617 14.1213,-22.06611 16.2824,-22.29817 45.0873,-49.76938 75.55703,-35.11534 M 360.88474,799.8803 c 6.2137,3.87963 12.3127,6.5616 11.0442,15.04775 l -9.0362,-5.01591 -2.008,-10.03184 m -72.2892,5.01592 c -0.2748,5.90485 -2.004,9.58706 -8.0321,11.03502 0.8205,-5.27504 2.4392,-9.82991 8.0321,-11.03502 m -41.1647,30.0955 c -2.4507,-9.46448 -3.8544,-18.54322 -1.004,-28.08913 8.1588,3.26598 8.0502,24.041 1.004,28.08913 m 516.06496,-21.06685 26.10446,18.0573 c -4.76829,7.7672 -20.33522,10.84777 -28.11249,15.70413 -15.79416,9.86235 -29.36187,21.55264 -42.26943,34.94658 -6.9338,7.19508 -14.5285,18.66029 -24.9998,20.5753 -0.9206,4.67378 -6.1265,7.92286 -10.0835,10.29114 -8.7605,5.24321 -21.2239,17.06506 -32.0852,15.79166 3.6041,-5.6495 5.9539,-15.71555 10.6413,-20.17054 3.5891,-3.41116 9.2146,-0.84741 13.4102,-2.50483 6.9766,-2.75601 3.0722,-12.98959 2.053,-18.45518 9.0516,-6.81863 15.8259,-18.68698 22.581,-27.6626 10.5853,-14.06477 22.7999,-26.78765 35.74183,-38.67755 4.91732,-4.51762 23.2573,-20.37042 27.01863,-7.89541 m -439.75966,108.3438 c -5.7251,-5.24002 -9.3805,-15.89707 -12.204,-23.08792 -7.4611,-19.00194 -12.8934,-38.58276 -18.3426,-58.16993 -1.7785,-6.39273 -6.2504,-24.44047 3.7278,-27.33907 6.9353,-2.01458 13.286,19.61938 14.4297,24.32952 2.9425,12.11841 8.5972,23.891 10.7599,36.1146 1.6775,9.48175 0.262,21.3103 0.509,31.09868 0.1485,5.88629 2.1425,11.20425 1.1202,17.05412 m -192.7714,-99.31515 -1.004,2.00637 c 11.5383,5.42468 22.7994,21.87655 32.2983,30.80148 4.4643,4.1947 10.1269,7.17216 11.8785,13.33858 l -56.225,-7.98603 -40.160704,0.96375 c 8.7749,-22.72164 25.298504,-45.76473 53.212904,-39.12415 m 425.7034,18.0573 c -25.2171,0 -45.9159,-5.71172 -70.2812,5.05535 -20.8616,9.21882 -38.4594,24.35413 -59.6623,33.36907 -4.9037,2.08486 -8.1186,5.2154 -13.631,5.71564 6.5738,-16.70204 25.8982,-38.44915 43.1728,-44.14006 l -1.004,-2.00637 c 7.4347,-4.13372 14.0659,-9.76279 22.0883,-12.8316 15.8487,-6.06246 36.8897,-4.5349 53.213,-1.20904 8.6868,1.7699 23.7714,6.47256 26.1044,16.04701 m -411.6471,-15.04775 c 11.0474,-2.59784 23.4248,2.31239 33.1326,7.10359 9.7284,4.8015 18.375,8.20121 26.6823,15.56331 5.7345,5.08192 8.9043,11.66727 13.858,17.29009 7.4588,8.46645 17.556,17.5551 26.0261,24.93104 6.4451,5.61247 10.5656,-4.3648 16.7677,-0.36076 15.2676,9.85647 25.9858,27.86142 37.9071,41.19324 6.5816,7.3603 16.2299,13.5315 20.3252,22.687 -5.83,1.5495 -9.2037,-2.4973 -14.2267,-4.9207 -10.2529,-4.9468 -32.327,-4.8772 -38.9862,-14.1398 l 3.0121,1.0032 c -27.8574,-33.50633 -69.4552,-52.78939 -100.398,-83.24956 -8.658,-8.52302 -23.5648,-17.75642 -28.1163,-29.10702 l 4.0161,2.00637 m 651.60735,-1.67194 0.33464,0.33433 c -0.49551,0.16494 -1.111,-0.33433 -0.33464,-0.33433 m -130.52225,2.67512 c -1.4777,3.75888 -10.0709,19.71589 -14.7853,18.30663 -2.7504,-0.82218 -3.6948,-6.52828 -2.2303,-8.65172 2.093,-3.03478 13.3977,-8.41268 17.0156,-9.65491 m -296.1852,2.00637 -2.0081,3.00955 2.0081,-3.00955 m 300.2012,68.21646 c -43.2699,-0.0287 -56.6784,-50.00695 -97.3897,-55.17508 l -11.0442,-12.0382 c 8.9853,-1.18209 21.7095,4.25128 30.1206,7.57421 24.3833,9.63311 41.4694,20.62539 58.7048,40.39442 6.6487,7.62612 16.654,8.55754 19.6085,19.24465 m 192.77141,-44.14006 -1.00402,3.00955 c 9.77205,1.66606 20.46895,20.02227 22.08835,29.09231 -13.1015,-5.17706 -24.76753,-13.68906 -39.15665,-15.7498 -20.11368,-2.88048 -40.22027,1.63739 -60.24106,3.54126 -13.59511,1.29281 -27.62647,-0.25177 -41.16472,-0.83284 15.68073,-20.32205 53.66678,-37.1468 79.31739,-33.818 14.58608,1.89297 26.88701,9.20645 40.16071,14.75752 m -310.57611,-13.71014 0.6693,0.33433 -0.6693,-0.33433 m -228.5813,0.66876 c 4.6782,3.9204 9.0601,8.65735 9.0361,15.04775 h -1.004 l -8.0321,-15.04775 m 271.7541,0.33443 0.6693,0.33432 -0.6693,-0.33432 m -448.4612,6.68785 1.004,1.00318 -1.004,-1.00318 m 465.8641,31.09868 -30.1205,-11.84937 -28.1125,-5.11498 -55.221,1.4684 -19.0763,-0.55498 c 5.9138,-11.02253 27.9136,-14.77663 39.1567,-14.2536 27.386,1.27406 56.7993,-3.68442 79.7396,15.0911 5.353,4.38121 11.6677,8.2138 13.634,15.21343 m -25.4351,-21.7356 0.6693,0.33432 -0.6693,-0.33432 m -347.0553,5.68467 5.02,14.04457 h -2.008 l -3.012,-14.04457 m 194.7793,1.00318 1.004,1.00319 -1.004,-1.00319 m -304.2173,7.02229 c -3.5403,5.06955 -12.5553,4.80883 -18.0723,6.94794 -14.5405,5.63777 -40.225304,24.43056 -55.221004,16.12527 14.6058,-28.45528 45.449804,-28.23816 73.293304,-23.07321 m 227.912,0 -2.0081,2.00636 c 2.8233,11.71307 0.5218,23.20767 1.0436,35.11142 0.2597,5.92597 2.6731,13.17964 1.5594,19.02096 -0.8444,4.4289 -10.1539,13.1762 -15.2051,11.3432 -3.65,-1.3247 -1.4405,-14.1856 -1.028,-17.32278 1.7688,-13.45419 5.4294,-40.48626 15.6382,-50.15916 m 179.7191,2.00636 c -32.2677,17.95639 -74.9031,40.2264 -90.3616,76.24198 -6.4533,-3.2966 -7.5464,-10.0884 -10.4306,-16.1407 -5.9882,-12.56586 -11.411,-26.29546 -25.714,-31.00896 v -3.00955 c 25.9392,-13.78018 52.2461,-25.06329 82.3294,-25.07958 l -1.004,-2.00637 c 11.8879,0 35.0697,-5.8986 45.1808,1.00318 m 3.0121,0 -1.004,1.00319 1.004,-1.00319 m -334.3378,22.07003 -40.1607,-7.98603 -74.297304,7.98603 c 5.025304,-7.20426 20.911804,-10.02828 29.026604,-12.2116 30.4746,-8.19947 59.2206,-9.43289 85.4314,12.2116 m 369.4784,-17.05411 c -6.7027,10.9804 -16.5254,19.88004 -24.1011,30.21006 -18.938,25.8234 -35.6632,60.5119 -42.3144,91.8919 -2.5603,12.07982 -10.0054,26.05642 -9.6652,38.42212 0.1458,5.298 3.1005,14.6625 -3.284,17.6154 -5.7351,2.6526 -9.2999,-4.3844 -10.8117,-8.5124 -4.1979,-11.4613 -6.1441,-22.4976 -9.0819,-34.1973 -7.9519,-31.66792 5.1318,-75.65692 22.3448,-102.32087 4.4218,-6.84963 12.9301,-9.8754 16.6724,-16.0548 19.543,-3.08816 39.0226,-27.25666 60.2411,-17.05411 m 40.1607,1.00318 v 2.00637 h -2.008 v -2.00637 h 2.008 m 287.14904,66.21018 v 1.0032 c 6.3427,5.6071 9.6489,19.8873 11.0442,28.0891 -9.1416,-4.582 -12.5847,-19.7488 -18.6681,-27.6325 -18.5482,-24.0372 -41.87111,-44.8674 -73.70154,-47.28045 -17.25795,-1.30829 -39.68792,2.89021 -55.93832,8.45199 -6.93227,2.37258 -12.66015,7.53974 -19.363,10.29114 -14.43674,5.92602 -29.85598,8.54872 -44.00638,15.12442 -29.7116,13.8072 -55.678,36.6347 -77.6223,60.5673 -19.64,21.41942 -39.6269,40.37942 -61.0522,60.11652 -4.6947,4.325 -15.2952,19.4891 -22.0728,19.2649 -4.143,-0.137 -8.6056,-4.0077 -12.1141,-5.8735 -4.3073,-2.2907 -13.3409,-3.3936 -15.701,-7.9845 -2.8332,-5.5114 3.9685,-15.5378 6.8554,-20.0086 10.6967,-16.5656 19.9034,-33.2459 33.5393,-47.72092 32.4236,-34.4189 83.4766,-38.7827 122.6102,-62.9784 23.5004,-14.53 44.0407,-42.97824 72.57594,-46.3423 13.51557,-1.59344 28.38574,0.29781 42.16874,-0.32746 29.3558,-1.33162 62.4605,-7.40362 87.19376,13.03441 11.1164,9.18588 18.1022,22.64222 22.2875,36.16025 1.1359,3.6687 4.9714,11.1422 1.9647,14.0454 M 393.01344,880.13497 c -1.1611,9.17989 0.9907,16.40203 -5.0201,24.0764 h -1.004 l -4.0161,-2.00637 10.0402,-22.07003 m 116.466,160.50943 c -4.3719,-10.7059 5.4067,-25.8184 8.1685,-36.1146 10.0858,-37.60172 28.5746,-70.82032 51.1615,-102.24973 4.5359,-6.31166 13.2527,-21.59612 21.9954,-21.86345 4.2784,-0.13078 8.9416,3.13287 13.0523,4.25901 3.3016,0.90448 9.935,2.05155 12.0009,5.07469 2.5679,3.75789 -2.6311,7.47911 -4.8481,9.73156 -7.2941,7.41067 -12.9862,17.76995 -18.022,26.7996 -6.9224,12.4128 -13.3055,28.3602 -21.5491,39.5312 -8.2196,11.1385 -22.3631,19.7208 -31.7993,30.204 -11.7119,13.01112 -21.2269,29.66632 -30.1601,44.62772 m 126.5062,-160.50943 1.004,1.00318 -1.004,-1.00318 m 250.00044,7.02228 -1.0041,1.00318 1.0041,-1.00318 m -638.55514,50.15923 c -11.1165,-0.4177 -22.1527,2.3399 -33.1326,3.8819 -32.7992,4.6063 -64.1299,12.9269 -88.0275,37.6742 -12.155,12.5875 -19.4999,32.08702 -29.5611,46.70942 -5.536504,8.0462 -12.746304,16.794 -22.973904,18.0719 1.4778,-11.684 -0.2853,-24.909 3.8758,-36.1138 12.2354,-32.94592 50.312904,-69.28362 85.481804,-75.77752 15.562,-2.8736 32.5631,-2.2187 48.1928,-0.4142 7.3331,0.8466 13.5582,3.8018 21.0844,2.9585 -4.5561,-8.7556 -17.6409,-8.5571 -26.1044,-10.6604 -22.9867,-5.71231 -43.9843,-18.93328 -67.2692,-23.44785 6.2158,-9.34153 23.2501,-5.26107 32.1285,-3.40044 22.1022,4.63189 41.0929,10.60905 59.3122,24.4417 6.0457,4.59009 13.6519,9.05609 16.9932,16.07659 m 339.3579,20.0637 c 1.1499,-17.0895 19.194,-31.0008 28.0172,-44.23537 3.3059,-4.95873 8.9848,-15.34105 14.4529,-17.80497 3.8237,-1.723 23.2873,6.04958 25.5799,9.46135 2.8178,4.19311 -7.431,15.64835 -9.8162,19.18739 -2.8411,4.2156 -4.8225,9.3673 -8.5024,12.937 -9.5652,9.2783 -24.5647,10.7044 -36.5894,14.6537 -4.7259,1.5522 -8.1335,4.8943 -13.142,5.8009 m -341.366,-62.19746 1.0041,1.00318 -1.0041,-1.00318 m -95.3816,17.05411 c -25.5413,0.52677 -59.889704,13.90215 -80.321404,29.22395 -10.9564,8.216 -22.226,16.4354 -34.1366,22.9811 -4.7768,2.625 -9.4338,7.0567 -15.0603,5.9797 3.6026,-12.4939 13.1022,-23.18 21.9992,-32.2715 17.4131,-17.79373 42.8804,-37.82305 69.366404,-37.95065 9.409,-0.0453 32.8178,3.57188 38.1527,12.0374 m 286.1449,40.12745 c 3.4357,2.7763 3.559,8.8589 4.5196,13.0414 3.1065,13.5251 4.394,22.593 1.5286,36.11462 -1.123,5.2987 -3.9044,14.4226 -10.1038,15.6886 -16.2532,3.3191 -29.5484,-13.7463 -44.1372,-15.6886 v -1.0032 h 3.012 v -1.00322 l -17.083,-9.8477 -32.1138,-29.2765 c 6.5064,-16.7325 21.8958,-23.5009 34.3837,-35.0674 5.6963,-5.27587 10.8767,-13.44211 18.83,-15.26209 18.5389,-4.2424 27.6848,8.66494 35.4559,23.24349 3.0202,5.666 7.0978,12.549 5.708,19.0606 m -296.5198,-40.79626 0.6693,0.33444 -0.6693,-0.33444 m 46.5195,-0.33437 1.004,1.00318 -1.004,-1.00318 m 722.89264,1.00318 1.004,1.00319 -1.004,-1.00319 m -737.95294,9.02865 v 2.0064 l -32.1285,1.2121 -26.1045,4.807 c 15.027,-13.14189 40.4131,-10.29233 58.233,-8.0255 m 132.5304,-2.00636 5.02,7.02236 -5.02,-7.02236 m -164.6589,1.00318 1.004,1.00318 -1.004,-1.00318 m 342.3699,5.01598 c 0.472,5.6666 -2.2541,14.6673 -7.0281,18.0573 2.7943,12.8856 -4.8559,29.597 -5.0162,43.1369 -0.192,16.20602 1.0567,31.12442 3.1677,47.14962 0.567,4.3039 5.1996,12.9696 3.9936,16.9054 -1.0023,3.2714 -6.8448,1.9525 -9.1732,1.4878 -7.2084,-1.4385 -20.0829,-2.6279 -23.3659,-10.3864 -7.3902,-17.4642 3.4363,-27.2764 7.6944,-44.12142 3.1861,-12.6046 -1.4615,-26.3429 0.8762,-39.1241 1.9864,-10.861 18.9246,-28.7805 28.8515,-33.1051 m 260.04058,2.0063 -1.00402,1.0032 1.00402,-1.0032 m -428.71548,3.0096 -3.0121,-2.0064 3.0121,2.0064 m -170.683,1.0032 v 1.0032 c -28.8394,15.4516 -56.222704,39.6078 -69.302804,70.22282 -6.1844,14.4752 -2.1809,30.4075 -6.0218,45.0535 -4.6276,17.646 -33.162,35.8725 -50.1776,38.2107 -0.6779,-7.7093 -7.7881002,-15.6282 -7.4426002,-22.9834 0.1497,-3.1882 3.3100002,-5.9952 4.1748002,-9.1224 3.3742,-12.1985 7.6449,-22.7549 13.3389,-34.1043 21.6459,-43.14482 63.0001,-87.84112 115.431104,-88.28012 m 36.1447,4.0127 1.004,1.0032 -1.004,-1.0032 m 81.3254,0 -1.004,1.0032 1.004,-1.0032 m 633.53504,1.0032 1.004,1.0032 -1.004,-1.0032 m -804.218044,3.0096 v 2.0064 h -2.008 v -2.0064 h 2.008 m -6.0241,4.0127 -1.004,1.0032 1.004,-1.0032 m -2.0081,1.0032 -3.012,2.0064 3.012,-2.0064 m 203.815604,17.0541 c -9.9853,0.4348 -20.3119,7.2405 -30.1205,6.4572 -6.3616,-0.508 -13.0212,-4.7539 -19.0763,-6.7127 -13.9297,-4.506 -28.5252,-7.7699 -43.1728,-7.7699 1.1981,-7.1828 18.216,-5.4459 25.1004,-6.0191 19.6658,-1.6375 40.911,-1.5683 59.2371,3.0095 5.1541,1.2874 13.8953,-0.2365 18.0723,3.0096 5.7751,4.488 -10.7569,5.1607 -10.0402,8.0254 m -60.241,-14.0445 v 1.0031 h 3.012 l -3.012,-1.0031 m 117.47,125.39782 h 2.008 c -0.9095,2.8669 -1.1304,10.226 -3.6179,11.9206 -2.4644,1.6788 -8.6649,0.1185 -11.4424,-0.3228 -11.6135,-1.8451 -22.4824,-7.6837 -33.1325,-12.3866 -29.5277,-13.0387 -56.6052,-54.0903 -41.0439,-86.48432 8.5147,-17.7248 36.2568,-17.162 53.0921,-19.3469 5.4455,-0.7066 15.9393,-2.7963 20.6087,0.8484 6.9238,5.4046 10.3832,17.536 12.0366,25.517 3.7593,18.14652 6.5126,35.49522 6.5114,54.17192 -6e-4,8.7985 0.3779,18.8398 -5.0201,26.0827 m 36.1446,-71.2259 35.1406,18.7013 16.3385,5.1274 6.7539,16.2986 c -18.8941,2.3731 -47.4319,-3.7468 -64.0859,7.4984 -7.6351,5.1552 -13.6156,15.2816 -17.097,23.6002 -2.3483,5.6114 -2.1164,12.4917 -9.1787,13.0414 14.4034,-36.6694 6.1011,-77.2537 -6.0241,-113.35972 10.454,1.7994 20.9232,15.2418 29.0887,21.5963 2.7615,2.149 9.0787,4.6427 9.064,7.49612 m -47.1888,-26.08292 1.004,1.0032 -1.004,-1.0032 m -256.024504,9.0287 1.0041,1.0032 -1.0041,-1.0032 m 303.882604,23.40762 0.6694,0.3344 -0.6694,-0.3344 m 172.0217,85.9394 c -8.3117,5.3182 -9.1964,28.0182 -11.1108,37.1178 -8.68,41.2596 -8.3886,85.7006 2.0747,126.4011 h -1.004 l -45.3807,-56.2177 -16.8684,-23.0338 c -2.9401,-12.1766 -13.2,-24.8908 -21.2812,-34.1833 -13.9344,-16.0231 -27.0814,-31.8259 -43.8103,-45.0682 -6.8156,-5.3952 -16.2183,-16.4536 -25.2701,-17.0541 -2.9097,-4.77 -13.6059,-9.9474 -19.0764,-11.035 0.7888,-7.2505 5.8125,-8.9592 10.0402,-14.0446 12.7874,-0.6021 23.8452,-5.5049 37.2385,-4.8759 29.7005,1.3952 58.1829,10.5558 87.2597,15.7901 14.9498,2.6914 24.5945,5.1001 36.5219,14.4579 4.9111,3.853 9.073,5.0474 10.6669,11.7457 m -84.3374,78.2483 c -10.692,-3.4678 -21.1009,-15.1633 -31.4105,-20.5963 -21.1968,-11.1703 -43.4979,-17.4473 -66.9833,-21.2905 -8.4482,-1.3825 -33.0592,4.1479 -37.1486,-3.2565 l 9.0361,-5.0159 c 0.9969,-6.1305 7.0849,-10.9227 10.4981,-16.047 4.1676,-6.2572 5.492,-12.3103 8.4621,-19.0644 1.1968,-2.7216 3.0288,-9.4497 6.3688,-10.154 7.421,-1.5653 21.9117,10.9036 27.9026,14.7983 21.4834,13.967 39.6427,32.5232 55.7632,52.2516 6.2441,7.6414 16.7452,18.1131 17.5115,28.3747 m 90.3615,-75.2388 c 8.8035,18.5019 33.388,26.6355 47.9861,40.218 18.9783,17.658 28.9259,42.1846 36.4916,66.2897 2.6832,8.5491 7.8491,21.9582 7.5069,30.9278 -0.2403,6.2997 -5.8196,12.3629 -8.1855,18.058 -6.0349,14.5275 -11.0126,28.8716 -17.6184,43.1368 -3.6336,7.847 -5.7752,16.2559 -9.3971,24.0718 -1.0858,2.3429 -3.7196,6.963 -6.9847,4.7821 -3.7217,-2.4858 -1.3518,-13.0515 -0.7716,-16.6454 2.3611,-14.625 6.2677,-30.7203 7.1977,-45.3135 l 4.0161,6.0191 11.0442,-2.0064 -1.004,-3.0095 c 5.9771,-6.2248 2.0132,-13.2716 2.008,-21.0669 h -3.0121 c 0.068,-11.1159 -15.4547,-24.9826 -23.0792,-11.0163 -3.5445,6.4926 -0.9044,13.3545 -0.1874,20.045 1.111,10.3691 0.7723,25.6933 -3.8418,35.1114 h -1.004 l 1.004,-6.0191 c -6.1051,-6.8632 -8.6616,-25.6598 -20.0951,-26.7718 -4.7833,-0.465 -9.399,3.071 -14.0415,3.6986 l -5.7755,12.0382 5.7755,14.0445 c 8.4262,-0.3095 6.0281,8.0462 6.0241,14.0446 -12.3484,-7.8542 -22.0454,-30.9743 -21.0844,-45.1432 h -1.004 v 3.0095 h -1.004 c -3.1661,-18.0351 -7.1851,-35.7449 -7.9926,-54.1719 -0.8732,-19.9236 2.4625,-39.473 4.8605,-59.1878 1.6131,-13.2621 3.4235,-33.7404 10.1602,-45.1433 h 2.008 m -224.8999,8.0255 1.004,1.0032 -1.004,-1.0032 m 517.06906,0 c -0.0168,6.0776 -0.66459,19.6377 -6.0241,23.0732 v 1.0032 h 3.01205 c -3.52504,9.1459 -4.95874,22.3608 -2.69757,32.1019 1.46314,6.3032 5.27919,11.2917 5.70962,18.0573 -30.63057,0 -60.84742,6.6984 -89.34286,18.398 -11.43179,4.6934 -22.71332,16.4364 -35.1553,17.7166 v -1.0032 c 14.45026,-9.0465 28.74807,-23.3267 41.42036,-34.7669 6.91451,-6.2422 14.29292,-15.4777 23.84076,-17.3986 1.29278,-6.8318 23.35903,-22.0014 30.12053,-23.0733 l 1.00402,-4.0127 10.04017,-4.0127 4.01607,-6.0191 -15.06026,4.0127 -23.96705,16.431 -17.17911,14.5656 -14.07481,9.1307 -5.02009,8.0255 c -6.96702,1.8105 -10.84938,7.8087 -16.10067,12.3044 -7.27038,6.2246 -15.8962,12.3529 -22.38442,19.2874 -7.5852,8.107 -15.6004,20.7564 -25.772,25.5897 0.4734,-4.3856 2.157,-13.4574 7.0281,-14.0446 0.8376,-10.7003 7.7976,-18.7576 12.4596,-28.0884 13.30254,-26.6244 32.65402,-49.3292 57.54892,-65.816 5.15105,-3.4114 9.5826,-8.4732 15.33297,-10.8161 19.86421,-8.0932 41.17097,-4.2209 61.24507,-10.6456 m -582.33016,7.0223 1.004,1.0032 -1.004,-1.0032 m -15.0603,89.2833 -18.0723,6.0191 c -5.6829,-7.633 -15.562,-14.6011 -22.9615,-20.7898 -31.1944,-26.0897 -66.2687,-39.8837 -103.5447,-54.4489 6.3334,-12.2182 34.9421,-13.4864 46.2747,-10.1169 30.6126,9.102 54.6554,34.5758 76.6376,56.535 6.2943,6.2877 18.9039,14.3943 21.6662,22.8015 m 91.3656,-24.0764 -23.926,7.7274 -26.2748,-19.3994 -52.2089,-35.4776 c 4.5776,-4.6706 17.5262,-5.3782 24.0964,-6.1746 7.5225,-0.9121 18.4815,-4.1375 25.817,-1.2603 5.5941,2.1943 10.7128,10.1171 14.9254,14.3272 11.3717,11.3646 31.205,25.5446 37.5709,40.2573 m -26.1044,-47.1496 c 8.0971,3.9366 14.0247,12.1726 22.6662,15.7778 14.1313,5.8952 38.9228,2.6457 47.3353,17.9094 3.6577,6.6365 -0.5207,14.6074 0.2797,21.4879 -11.3585,4.7763 -33.2058,-6.8196 -40.3583,-15.335 -2.7097,-3.226 -6.907,-5.3577 -6.8306,-9.7446 l -10.13,-9.144 -26.0145,-27.9738 c 5.9892,-1.193 17.0246,-1.7176 13.0522,7.0223 m 441.76768,-5.0159 c -2.91817,8.7852 -11.33393,12.5581 -17.9011,18.3437 -6.41012,5.6472 -12.31754,13.9869 -17.07998,21.0668 -22.1414,32.9165 -37.1324,70.6127 -54.7762,106.0511 -6.9316,13.9223 -22.0743,25.6939 -25.7048,41.1305 l -5.02,1.0032 c 0.2286,8.5863 -12.9012,31.0604 -21.0844,34.1082 l -1.004,-1.0032 29.1165,-78.2483 c 13.845,6.1244 17.5167,-6.5013 22.6446,-17.0541 2.0064,-4.1288 5.4564,-8.3294 5.8002,-13.0414 0.3111,-4.262 -1.9659,-8.1596 -3.3444,-12.0382 l -16.0643,2.0064 c -0.6976,-5.5209 -2.4005,-13.306 -0.182,-18.6349 1.9671,-4.7248 6.0821,-6.5453 9.6443,-9.7499 10.6381,-9.5699 23.353,-15.7593 34.6092,-24.5324 5.1984,-4.0516 9.4111,-11.4345 13.6007,-16.5889 6.9383,-8.5364 16.55308,-26.4561 29.67738,-24.7932 l 17.0683,-8.0254 m -419.67938,3.0095 1.004,1.0032 -1.004,-1.0032 m 469.88026,1.0032 1.00401,1.0032 -1.00401,-1.0032 m -496.98866,72.2292 -20.0804,2.0064 v -3.0096 l -34.1366,-1.0032 2.0081,-4.0127 -17.0831,-15.4766 -50.1861,-46.7208 c 5.4755,-4.1448 16.4201,-1.9749 23.0924,-2.007 3.6565,-0.018 8.4758,-1.5141 11.9584,-0.3623 8.5649,2.8326 17.8024,13.0431 25.2793,18.2376 12.298,8.5439 25.6702,15.5288 37.3463,24.9914 9.7858,7.9307 22.8672,13.7413 21.8017,27.3568 m 62.249,-64.2037 c 10e-5,3.5885 8.8629,1.7468 12.0482,2.6752 13.1342,3.8276 28.0374,6.7693 39.8261,13.8773 25.902,15.6175 49.1218,34.3751 69.9465,56.8471 10.4103,11.2336 20.8782,25.1048 29.4512,37.9537 4.6016,6.8967 9.925,16.0768 16.399,21.0669 v 1.0032 c -11.368,-0.8486 -24.1136,-14.4901 -34.1366,-19.9901 -20.7859,-11.406 -44.826,-19.5297 -68.2732,-22.7203 -9.4933,-1.2918 -19.5454,-0.4265 -29.1165,-0.4265 -4.1078,0 -9.2751,0.8712 -12.4403,-2.3253 -18.2273,-18.4082 5.7261,-48.9778 -4.1291,-69.914 -5.9062,-12.5469 -33.5611,-15.5901 -45.6797,-17.044 l 26.1044,-1.0032 m -11.3788,0.3343 0.6693,0.3345 -0.6693,-0.3345 m 346.7207,5.6848 c -2.0402,15.6492 -19.1502,28.4049 -32.1286,35.1114 2.1187,-15.9305 17.5325,-30.1356 32.1286,-35.1114 m 16.0643,10.0318 v 2.0064 l 2.00803,-2.0064 h -2.00803 m -32.1286,4.0127 1.004,1.0032 -1.004,-1.0032 m -495.9846,51.1624 18.0723,11.035 -8.0321,11.035 c -15.005,-0.7727 -30.1849,1.0088 -45.1808,-0.09 -21.1973,-1.5539 -44.3567,-7.3296 -65.2612,-11.7362 -17.569804,-3.7037 -30.777804,-1.1929 -44.176004,-14.9371 -7.1996,-7.3858 -30.2458,-24.2733 -28.1132,-35.4337 l 115.462004,23.8566 35.1406,10.2942 22.0884,5.9765 m 467.8721,-25.0796 v 2.0064 h -2.008 l 2.008,-2.0064 m 185.7433,1.0032 -1.00402,5.0159 -70.28123,10.0318 12.04821,-4.6264 43.17275,-8.5891 16.06429,-1.8322 m -186.7473,2.0064 -1.004,3.0095 -13.0522,5.0159 c 3.0296,-5.7707 7.4639,-8.8245 14.0562,-8.0254 m -284.137,16.0509 8.8348,27.0859 12.1001,21.1063 1.128,16.0115 10.0657,25.0796 c -8.7658,-4.1696 -12.8004,-13.6285 -20.5212,-18.8376 -21.175,-14.2861 -45.2571,-21.2341 -62.7309,-41.3782 -11.0715,-12.7634 -15.068,-25.8988 -0.6593,-37.8206 10.3727,-8.5824 28.5219,-5.3088 39.7346,-0.7872 4.606,1.8575 16.9432,2.14 12.0482,9.5403 m 468.87626,-6.0191 c -2.38,18.8165 -5.45763,47.3262 -16.62598,63.1959 -6.94668,9.8709 -20.79206,14.2224 -26.54678,25.0842 l -32.12856,-1.9669 -66.26514,9.504 -34.1366,11.5234 c 0.088,-4.279 1.4516,-8.8116 0.6089,-13.0414 -0.7712,-3.8702 -3.5851,-7.7073 -2.0258,-11.7774 7.9296,-20.6994 34.2749,-36.7342 52.6218,-46.2401 23.28573,-12.0648 46.74722,-24.0373 72.28925,-30.7688 16.96038,-4.47 34.91589,-3.3292 52.20891,-5.5129 m -73.29328,3.0095 c -1.08253,3.8487 -3.41534,3.5654 -7.02813,3.0096 l 7.02813,-3.0096 m -13.05223,5.016 -3.01206,2.0063 3.01206,-2.0063 m -425.70345,44.14 v 1.0032 l -3.0121,-2.0064 c -6.7161,0.6932 -12.5344,-2.7592 -19.0763,-3.7115 -21.29,-3.0997 -43.5448,-9.252 -65.2611,-5.8799 -9.5551,1.4837 -18.6263,3.9395 -28.1125,5.5974 -4.1104,0.7182 -7.2457,3.3125 -11.0442,0.9845 l -5.0201,1.0032 c 17.6669,-29.6062 51.9052,-41.9161 84.3375,-35.4837 5.3417,1.0593 15.0929,0.4314 19.5296,3.5614 3.7492,2.6452 6.0933,9.0861 8.5813,12.8649 5.2064,7.9076 12.0235,15.7581 19.0779,22.0669 m 396.58694,-40.1273 1.00401,1.0032 -1.00401,-1.0032 m 24.09642,0 v 1.0032 l -8.03214,1.0032 8.03214,-2.0064 m -1.00402,9.0286 1.00402,1.0032 -1.00402,-1.0032 m -539.15744,48.1528 c -12.0855,4.4489 -28.3732,3.0716 -41.1647,2.0064 -6.5171,-0.5426 -12.3851,1.7084 -19.0763,-0.3344 -5.1451,-1.5708 -9.4177,-6.0832 -14.0563,-8.6942 -7.3597,-4.143 -15.2695,-6.7077 -23.0924,-9.5303 -9.9032,-3.5731 -19.2524,-8.1026 -29.116504,-11.871 -3.1867,-1.2174 -5.5625,-6.1078 -9.0361,-3.6783 l -5.0201,-8.0255 73.293304,11.8672 29.1165,2.6023 9.6272,0.7764 2.7548,9.8609 25.7706,15.0205 m 395.5829,-33.105 -1.004,1.0032 1.004,-1.0032 m -56.225,65.2069 c 2.0162,6.3184 9.5529,4.1458 11.7577,12.0382 8.3406,29.8559 -2.1178,63.5102 -5.7336,93.296 h -2.008 c -2.2219,-12.9015 -9.6286,-27.0193 -9.5552,-40.1273 0.024,-4.2258 3.6369,-7.0899 4.6924,-11.035 1.4584,-5.4516 -1.2206,-12.1893 -3.5598,-17.0395 -2.8901,-5.992 -24.1342,-30.8079 -26.8064,-13.0553 -2.1314,14.1599 15.5139,28.5525 16.1527,42.133 -17.5355,-15.1981 -35.9868,-32.0025 -61.2451,-28.6373 -9.988,1.3309 -24.6855,15.4177 -33.9677,12.8248 -9.3582,-2.6139 -9.6439,-23.1936 -11.5362,-30.3339 -3.257,-12.2902 -11.6273,-22.5516 -16.55,-34.1083 -4.808,-11.2876 -5.787,-23.1782 -9.3445,-34.6857 -1.5594,-5.0443 -4.7396,-7.8374 -4.9069,-13.4671 27.7427,-7.2574 61.5581,3.4697 86.5159,14.9928 7.2117,3.3297 15.635,4.7562 22.0845,9.5891 9.5317,7.1423 19.9009,13.9338 27.8817,22.8689 4.826,5.4033 8.3096,13.4924 16.1285,14.7466 m 64.2572,-45.1432 c -7.1464,-2.4982 -10.4459,-8.9312 -11.0442,-16.051 7.5227,-1.7456 11.9605,9.8697 11.0442,16.051 m 45.1808,-16.051 -14.0563,25.0796 c -1.7787,-8.2024 3.8161,-26.2547 14.0563,-25.0796 m 28.1124,-1.0032 v 3.0096 h -1.004 l 1.004,-3.0096 m -78.648,6.3535 0.6693,0.3345 -0.6693,-0.3345 m -279.7862,14.7134 c -10.4577,4.3846 -24.9124,1.3206 -36.1446,3.155 -19.2605,3.1456 -33.4614,13.627 -53.2129,10.8237 -6.3437,-0.9002 -26.7574,-9.85 -26.4849,-17.9404 0.2063,-6.1218 22.8792,-6.789 27.4889,-7.1593 29.7589,-2.3899 59.9469,2.064 88.3535,11.121 m 372.4905,-11.035 1.004,1.0032 -1.004,-1.0032 m -352.4102,4.0127 1.004,1.0032 -1.004,-1.0032 m 229.92,32.1019 c -4.4708,-3.0023 -13.1461,-4.7012 -16.4578,-8.5371 -3.8852,-4.5001 2.193,-8.987 6.403,-9.3669 8.6743,-0.783 11.9743,11.3989 10.0548,17.904 m -215.8637,-8.0258 c -17.1861,-1.0372 -32.2991,5.5224 -46.1848,15.1375 -4.4697,3.095 -10.4732,10.2712 -15.0603,3.923 -12.2394,2.5823 -34.671,-4.5893 -35.1406,-19.0605 24.0307,-8.0037 46.0843,-8.8211 71.2852,-9.017 6.4664,-0.05 22.9426,2.3621 25.1005,9.017 m -97.3897,16.0509 c -2.8818,7.1631 -20.3451,5.0132 -27.1085,5.016 -17.2769,0.01 -37.378,3.384 -54.1775,-2.1999 -8.9317,-2.9687 -13.7498,-10.1673 -22.1278,-13.8511 v -2.0063 c 10.4567,-2.4874 22.4203,-1.0032 33.1326,-1.0032 8.0801,0 16.3612,-2.1034 24.0964,-2.066 4.0437,0.019 8.0562,2.8372 12.0482,3.604 13.0676,2.5104 23.6427,3.7396 34.1366,12.5065 m 269.0767,-16.0509 -1.004,1.0032 1.004,-1.0032 m -153.6147,5.0159 c 3.0554,9.8171 20.0858,17.3893 27.3052,24.6934 10.4815,10.6044 11.0218,23.0247 15.4213,36.5008 1.7429,5.3387 5.2804,9.3223 5.4663,15.0477 -8.7524,1.2857 -19.1802,3.5513 -26.938,7.9558 -7.7424,4.3957 -12.5616,10.8267 -22.169,7.4744 -6.7775,-2.3648 -11.3815,-7.4274 -16.7716,-11.8431 -13.3468,-10.9345 -26.5895,-23.3216 -37.4004,-36.7819 -3.6731,-4.5732 -13.2649,-14.6667 -11.4516,-20.8029 1.7141,-5.8009 8.6437,-8.6841 13.3248,-11.5746 15.7988,-9.7553 35.2189,-10.6696 53.213,-10.6696 m 160.6428,3.0096 -1.004,1.0032 1.004,-1.0032 m -385.5427,7.0223 1.004,1.0031 -1.004,-1.0031 m 422.6913,0 c 0,5.0113 8.4442,5.549 11.0442,2.0063 h 1.0041 c 1.985,10.6894 -4.2186,28.7654 -15.0231,12.9361 -2.3197,-3.3985 -0.8358,-7.2582 -2.0452,-10.9297 v -1.0032 l 1.004,-3.0095 h 4.016 m -287.1489,1.0031 1.004,1.0032 -1.004,-1.0032 m 514.05693,7.0223 -14.84799,24.0764 -24.3087,25.0796 -12.04821,6.0191 1.00402,3.0095 -37.14865,16.5332 -73.2933,17.3197 -47.1888,12.2936 v 1.0032 h 2.008 v 1.0031 h -6.0241 c 1.582,-5.0796 8.1797,-10.4541 12.0312,-14.218 9.7723,-9.5499 23.1632,-27.0937 37.1657,-29.922 1.1203,14.8302 16.8093,6.0004 21.2672,-2.0064 6.8711,-12.3411 1.054,-18.8991 -2.1909,-30.0955 h -4.0161 l 14.0168,-11.3492 24.1351,-15.051 14.0571,-0.6857 c 29.99364,-7.3831 65.31503,-10.1815 95.38163,-3.0096 m -150.60263,1.0032 c 0.9658,7.6355 1.5514,13.7722 -5.0201,19.0605 -0.9709,-5.8319 1.6068,-14.2332 5.0201,-19.0605 m 276.10484,72.2292 c -38.1779,11.7301 -77.25979,19.2378 -117.47007,19.0598 -9.12955,-0.04 -18.02244,-2.572 -27.10848,-2.9694 -3.95859,-0.1732 -9.26204,1.14 -12.04821,-2.0458 -14.02021,4.2567 -30.83322,-5.7326 -45.18079,-7.0223 l 10.04018,-8.0255 c 10.28652,-1.3726 26.94314,-14.6759 33.13258,-23.0732 l 3.01205,1.0032 c 10.13871,-17.2861 31.04495,-27.4953 34.1366,-49.156 26.22597,2.0856 51.36684,12.4681 74.29734,24.4835 9.2561,4.8503 17.3653,8.0572 25.1902,15.2228 8.335,7.6326 20.7783,20.7156 21.9986,32.5229 m -660.64354,-69.2196 v 2.0063 c -13.6262,1.1121 -20.9702,10.7516 -33.1326,14.3968 -11.1234,3.3338 -30.8941,-5.1632 -39.1567,-12.3904 l 22.6663,0.1121 49.623,-4.1248 m -9.0362,5.0159 -1.004,1.0032 1.004,-1.0032 m 103.4138,64.2037 v 1.0032 c -5.2368,-0.014 -15.2817,-0.4051 -19.4792,-3.9647 -5.174,-4.388 -7.3917,-10.5614 -13.94,-14.7413 -13.8167,-8.8194 -30.7345,-16.0113 -45.8981,-22.283 -7.7554,-3.2075 -24.8344,-5.9987 -29.1165,-13.1829 12.8861,-3.2447 28.9397,-14.1783 42.8861,-9.517 8.3392,2.7871 11.4678,11.7734 17.0178,17.6694 14.1796,15.0634 29.8417,35.5042 48.5299,45.0163 m -79.6521,-60.8598 0.6694,0.3344 -0.6694,-0.3344 m 314.5922,36.7834 c -8.8076,-1.4314 -19.455,-20.3046 -23.0924,-28.0891 8.9507,-2.0293 20.3923,20.4533 23.0924,28.0891 m -265.0606,21.0668 -37.1486,-2.7657 -29.1165,-13.4507 -46.1848,-12.8759 c 7.9862,-12.3659 22.7268,-12.0079 35.1406,-8.3041 19.6051,5.8495 38.0894,12.8234 55.2209,24.0764 5.6834,3.7332 19.5375,6.9311 22.0884,13.32 m 239.9602,-36.1145 c 6.4703,6.8441 4.1246,10.5437 4.0199,19.0604 -0.1969,16.0229 -5.3918,31.8859 -10.044,47.1496 h -1.004 l 3.9262,-36.1146 3.1019,-30.0954 m 71.2852,5.0159 c -2.1094,12.1002 -20.3381,27.0719 -32.1285,30.0955 l 5.02,-4.0128 c 0.7657,-6.6703 16.5012,-20.9893 23.0925,-22.07 l 4.016,-4.0127 m 143.57455,1.0031 1.00401,1.0032 -1.00401,-1.0032 m -131.52635,1.0032 c 0.6212,5.0209 1.7474,10.1726 -4.016,12.0382 l 2.008,-12.0382 h 2.008 m -397.5909,18.0573 v 3.0096 l 20.0804,6.0191 c -2.9328,4.7724 -7.2209,2.7907 -12.0482,3.1288 -8.1535,0.5709 -15.7437,2.8935 -24.0965,2.8903 -12.1379,0 -23.9441,-4.4426 -36.1446,-4.9765 -25.8907,-1.1327 -51.4864,1.9126 -77.3093,1.9669 5.7385,-10.9272 20.0069,-15.2177 31.1245,-18.2089 15.9296,-4.2862 37.7661,-6.3671 54.217,-4.2079 14.9775,1.9659 29.3164,8.8988 44.1767,10.3786 m 273.0928,82.2611 c -6.2055,7.3786 -24.5071,3.0502 -33.1326,3.0088 -23.831,-0.1149 -52.4359,-4.4269 -74.2973,-14.0129 -11.141,-4.8853 -18.6621,-15.2805 -29.1165,-20.0946 l -8.0322,-14.0446 c -12.5415,-4.6098 14.1869,-19.8545 19.363,-23.0028 6.3811,-3.8811 14.8954,-4.2901 21.8017,-7.0873 16.1898,-6.5568 39.3738,-23.4415 57.9464,-17.5145 22.6544,7.2292 47.5094,24.5956 53.1122,49.611 1.6286,7.2713 2.0513,14.8105 3.7364,22.07 0.9083,3.9128 3.6406,8.9461 2.9532,13.0011 -0.9415,5.5532 -9.4895,9.2253 -14.3343,8.0658 m 248.99632,-93.2961 1.00402,1.0032 -1.00402,-1.0032 m -33.13258,9.0287 1.00402,1.0031 -1.00402,-1.0031 m -164.65884,29.0923 h -1.0041 l 6.0241,-28.0892 c 14.0158,5.1336 -1.2271,20.7021 -5.02,28.0892 m 28.1124,-17.0541 -5.02,6.0191 5.02,-6.0191 m 322.28974,8.0254 c 4.3415,9.7012 8.1524,20.6988 10.3724,31.0987 0.9084,4.2553 -0.048,8.965 1.5286,13.0414 6.0896,15.7453 18.0439,29.0147 23.0188,45.1432 4.7499,15.3995 1.5684,29.8076 1.2248,45.1433 -5.6509,-2.9574 -7.1973,-13.3856 -9.5854,-19.0418 -3.5495,-8.407 -12.1587,-19.1053 -18.7727,-25.353 -22.3922,-21.1519 -46.9346,-40.7915 -74.859,-54.1138 -10.49047,-5.0048 -22.58735,-7.0615 -33.3293,-11.8416 v -1.0032 l 48.1928,-7.6686 44.1768,-9.3855 c 1.3223,-3.9726 4.124,-5.0285 8.0322,-6.0191 m -723.89664,3.0096 v 1.0032 l -60.2559,16.8259 -26.0897,-0.6048 -29.1165,3.8425 c 9.0522,-16.5741 23.9972,-19.5772 41.1648,-21.2371 24.5481,-2.3736 49.7131,-0.7486 74.2973,0.1703 m 78.3133,0 -21.9985,14.6916 -23.1823,18.4134 -24.0964,-4.0127 c 1.839,-6.4453 8.8959,-9.1053 14.0563,-12.7016 14.3498,-10.0002 37.1064,-20.9634 55.2209,-16.3907 m 50.2009,0 c -4.1174,7.5188 -14.7313,10.6289 -21.9591,14.6507 -6.3428,3.5293 -11.5281,9.1449 -18.2016,12.4359 -4.8356,2.3848 -9.0458,1.0556 -14.0562,1.7728 -8.3103,1.1894 -16.6549,4.6283 -25.1005,2.2393 22.7125,-19.8097 48.5789,-34.9801 79.3174,-31.0987 m 30.1205,5.0159 c -2.0533,4.1741 -5.7252,5.8137 -8.8216,9.1332 -3.5117,3.7646 -4.8385,9.167 -9.4258,11.9747 -9.8961,6.0569 -24.0591,0.6782 -34.9655,1.9653 8.0275,-13.9576 38.2827,-23.0732 53.2129,-23.0732 m -139.5584,2.0064 c -1.4605,5.2314 -15.6803,17.0824 -21.0991,17.9079 -4.852,0.7391 -9.2819,-1.5489 -14.0415,-1.8137 -11.2873,-0.628 -27.4155,0.293 -37.866,4.8635 -22.9371,10.0313 -46.8377,40.0067 -73.580004,34.2173 v -2.0063 c 32.024604,-18.6162 63.504904,-31.4271 98.393804,-42.9821 14.0651,-4.6584 33.1986,-12.1208 48.1928,-10.1866 m 585.3422,33.105 c 1.99866,7.0467 14.03021,14.2969 19.07634,20.1179 11.53468,13.3059 24.4847,31.8845 31.1245,48.0986 -17.86025,8.588 -40.84725,-9.481 -58.23298,-12.6645 -9.92693,-1.8177 -21.00201,5.1435 -31.12454,5.6028 -18.11509,0.8217 -37.54275,-4.7069 -55.22097,-7.9861 l 1.00402,-4.0127 c -7.09497,-5.0169 -8.67947,-16.9318 -13.23817,-24.0764 -7.9461,-12.4533 -23.4437,-28.8026 -36.9627,-35.1114 0.4579,-19.0122 14.223,-17.9334 29.1204,-20.6774 27.95576,-5.1497 60.76606,1.1707 86.34161,13.1428 8.84582,4.1406 19.15006,16.3125 28.11249,17.5664 m -524.0971,-26.0828 1.004,1.0032 -1.004,-1.0032 m 101.4057,18.0573 -1.004,2.0064 c 5.8196,3.0166 9.661,8.3444 15.0564,11.984 13.5506,9.1411 32.6271,17.9745 49.2007,18.1115 v 1.0032 h -3.0121 v 1.0032 l 51.2049,5.8487 25.1005,0.1704 c -10.716,9.9066 -25.4454,16.401 -37.6367,24.3078 -19.1792,12.4389 -40.2399,30.8477 -61.7611,38.7844 -18.478,6.8143 -44.5595,6.1274 -64.2571,6.1274 -14.7835,0 -31.0204,-1.0857 -45.1808,-5.519 -4.5787,-1.4334 -11.9425,-2.6115 -13.9067,-7.6555 -3.7846,-9.7188 8.5665,-19.7508 13.3559,-26.9922 13.9136,-21.0375 26.2665,-42.8138 39.5146,-64.1643 3.6632,-5.9038 9.142,-19.6222 16.564,-21.4997 4.678,-1.1831 12.0661,13.7155 16.7615,16.4837 m -37.1487,-15.0477 1.0041,1.0032 -1.0041,-1.0032 m 309.2375,2.0064 -4.0161,4.0127 4.0161,-4.0127 m 251.00434,51.1623 -2.008,2.0064 v 1.0032 c 10.6512,0.7462 32.0773,23.8775 34.1366,34.1082 l 3.012,-1.0032 c 3.9263,9.3412 8.3668,22.4114 16.0643,29.0923 v 1.0032 1.0032 l -3.012,3.0095 -3.0121,-1.0031 c 0.4523,-8.158 -7.8119,-15.1857 -12.4952,-21.368 -11.7772,-15.5471 -19.3002,-31.6214 -42.7258,-26.0332 -9.124,2.1765 -17.7856,5.768 -26.1044,10.0666 -2.6118,1.3497 -6.579,4.6505 -9.5389,2.5127 -5.5632,-4.0181 -9.3451,-18.0444 -13.22272,-24.0795 -12.61812,-19.6392 -31.17149,-46.0795 -53.54373,-55.4615 v -3.0096 c 10.47294,-1.0881 21.35486,3.9317 31.12455,7.0595 30.6367,9.8081 54.4718,23.3932 81.3254,41.0933 m -789.15774,-45.1432 c -4.3428,7.53 -19.0621,9.6191 -26.7824,12.6737 -11.2378,4.4463 -21.687704,13.6292 -31.621104,20.4808 -4.768,3.2887 -12.079,8.9187 -17.9019,7.976 3.3507,-7.5537 9.6157,-11.677 15.639,-16.952 17.1344,-15.0058 37.237804,-23.6799 60.666404,-24.1785 m 587.3502,69.2196 c -13.6532,3.248 -33.1746,3.133 -46.1848,-2.6604 -7.995,-3.5602 -14.7434,-9.5964 -23.0924,-12.8449 -8.9862,-3.4963 -18.1662,-0.9475 -27.1085,-3.3972 -7.1493,-1.9586 -13.341,-8.3848 -20.5064,-11.1388 -8.3627,-3.2142 -18.8731,-3.9028 -27.6864,-6.0733 1.9228,-10.3382 19.7045,-16.9592 28.1125,-20.8997 3.4449,-1.6144 10.4739,-1.0949 11.0442,-5.1831 7.1922,-1.4339 27.9978,-10.4009 34.4805,-4.9377 3.6137,3.0453 -3.1417,10.5939 4.1424,12.7868 7.7601,2.3361 13.8234,-6.0818 20.6141,-4.6058 6.3474,1.3798 12.2416,9.1005 16.4904,13.5555 13.0013,13.632 25.3259,26.3147 29.6944,45.3986 m -363.4544,-58.1846 -3.012,4.0127 c 0.3424,8.9065 -10.1363,19.167 -14.0562,27.086 -11.2196,-5.6026 -29.1999,0.8762 -41.1647,0.9992 -13.9939,0.1439 -26.0369,-8.9644 -40.1607,-7.9309 -19.5804,1.4328 -37.2131,11.7255 -57.229,12.8571 -23.8023,1.3458 -48.6835,-9.0772 -72.2893,-10.9414 3.7226,-7.2669 10.707,-9.3882 17.0683,-13.5878 19.3237,-12.757 38.5613,-20.5236 62.2529,-15.8729 12.3885,2.4318 23.111,9.9362 36.1408,10.3422 16.0124,0.499 32.3391,-4.2061 48.1929,-5.79 21.1749,-2.1154 42.9663,-1.1742 64.257,-1.1742 m 447.7919,-4.0128 1.00402,1.0032 -1.00402,-1.0032 m -252.0084,136.433 1.004,3.0095 c -11.5372,8.0735 -22.1469,16.8144 -33.9662,24.6183 -5.5656,3.6747 -13.5002,8.4006 -20.2508,6.4804 2.6098,-38.9417 8.8488,-78.2848 33.3294,-110.3502 5.7612,-7.5461 12.7665,-19.5966 21.9311,-23.3511 21.0969,-8.6426 39.369,7.0128 58.1935,12.8835 5.3528,1.6693 19.975,6.4995 19.4706,13.4811 -2.3791,32.932 -30.9938,41.0201 -54.6065,55.5721 -8.3581,5.1509 -15.8747,14.456 -25.1051,17.6564 m 211.8477,32.1018 c -14.76845,-10.5789 -26.55414,-26.0355 -41.2043,-37.2299 -17.5674,-13.4238 -36.3779,-25.4972 -54.1921,-38.6258 -8.4022,-6.1922 -21.1678,-14.1104 -26.0409,-23.7466 -1.8873,-3.7321 -1.0282,-9.5741 -2.0569,-13.7574 13.1825,-3.7843 26.8924,11.6789 39.1962,15.2444 8.0917,2.3448 16.6163,3.4455 25.061,2.6426 5.1142,-0.4863 14.1606,-3.0687 18.90202,-0.7802 8.10095,3.9099 13.38534,15.4916 17.24258,23.0206 8.96776,17.5042 11.73335,34.4129 16.44078,53.1687 1.72296,6.8648 5.71575,12.9951 6.65162,20.0636 m -237.9522,-113.3597 -7.0281,10.0319 1.004,3.0095 c -7.2664,7.1908 -11.8412,20.6241 -15.4631,30.0962 -1.8859,4.9322 -0.8367,10.8725 -5.6213,14.0439 l -6.2061,27.0859 -1.826,38.121 c -8.2121,1.5922 -15.1208,5.5958 -23.0924,7.7352 -16.9167,4.5397 -35.4466,7.0974 -51.2049,15.297 -17.7261,9.2234 -40.989,27.6925 -62.1902,26.6881 -7.3444,-0.348 -0.7388,-12.1874 0.6585,-15.6121 5.0992,-12.498 10.9398,-33.8362 23.379,-41.1305 l -1.004,-3.0095 6.0241,-7.0223 31.3097,-30.6591 37.1603,-24.6445 22.9096,-18.9831 36.3011,-22.1382 11.8778,-8.9094 h 3.012 m 436.74764,58.1847 3.0121,-1.0032 -2.008,4.0127 c -11.0417,-11.4272 -23.7157,-29.6576 -40.1607,-32.6391 -13.8194,-2.5054 -28.2805,4.639 -42.1688,0.5372 8.7353,-9.9862 33.7282,-21.7604 47.1888,-16.1167 10.7828,4.5209 17.5237,16.9597 23.7641,26.1486 4.0724,5.9965 9.8095,11.5199 10.3725,19.0605 m -447.45714,-44.4746 0.3347,0.669 -0.3347,-0.669 m 312.91883,10.3663 c -10.38384,-0.2142 -20.69187,-0.8687 -31.12455,0.1046 -14.08174,1.3136 -21.9521,5.4239 -35.14062,-2.1109 6.50694,-1.6381 13.44351,0.4764 20.08036,0.1003 12.31067,-0.6984 37.46706,-12.3311 46.18481,1.9064 m 48.86221,-6.6878 0.6693,0.3343 -0.6693,-0.3343 m -169.34434,248.4546 c -5.6326,-1.9491 -9.1153,-6.9295 -14.1461,-9.9762 -17.9333,-10.8605 -45.5034,-25.5704 -50.9632,-48.169 -1.4089,-5.8311 7.6392,-20.2351 9.8419,-26.1222 3.5099,-9.3809 3.5858,-22.1127 4.023,-32.1019 0.9598,-21.9324 -1.5735,-49.1437 -7.8935,-70.2228 -3.1172,-10.397 -10.0978,-19.2031 -13.1514,-29.0923 -8.6084,-1.729 -6.0066,-14.194 -3.5784,-20.063 0.9534,-2.3041 2.2146,-6.9708 5.5059,-6.5554 4.4743,0.5646 6.4463,10.2436 8.4234,13.577 8.692,14.6542 16.5355,30.3158 23.8221,45.7208 17.0143,35.9704 41.9336,69.371 47.7265,109.7726 1.927,13.4392 0.4484,27.8156 -1.2875,41.1305 -1.4057,10.7815 -3.118,22.3351 -8.3227,32.1019 m 49.19688,-233.7417 c 26.90906,16.1614 39.10955,57.3717 54.13949,83.2642 5.51242,9.4964 10.78847,20.8151 20.15781,27.086 v 1.0031 c -10.20098,2.9769 -16.83592,-8.1738 -21.1812,-16.0509 -11.92773,-21.6222 -20.86032,-47.3046 -35.90141,-67.1738 -4.39913,-5.8112 -18.62959,-21.0854 -17.21469,-28.1286 m 116.46606,18.0573 c -8.3532,-0.4275 -15.75655,-4.9749 -24.09644,-5.8488 -20.10113,-2.1063 -45.54468,0.3398 -63.25311,-10.2021 19.5599,-4.7711 44.73118,-2.6739 64.25712,1.4947 9.13985,1.9513 19.62593,4.7323 23.09243,14.5562 m -78.31339,-16.0509 1.00401,1.0031 -1.00401,-1.0031 m -138.55445,2.0063 26.1045,23.0732 c 9.6983,-1.7035 19.7395,12.8263 29.1165,15.0478 3.5478,7.1927 13.0304,11.5927 19.07632,16.6439 13.05051,10.9032 28.61389,24.1524 36.47156,39.6249 3.6066,7.1017 -0.63614,22.0324 -1.39909,30.005 -2.11466,22.0976 6.63606,40.5157 -3.86655,62.1934 -4.98001,10.2791 -18.90744,18.3388 -22.16976,29.0962 l -25.10048,16.051 c 4.6238,-16.9326 10.86449,-35.3835 10.86449,-53.1687 0,-37.8908 -17.65529,-72.3185 -34.22799,-105.3343 -8.8195,-17.5699 -18.4055,-35.0464 -28.0614,-52.1509 -3.0586,-5.418 -10.3087,-14.9891 -6.8081,-21.0815 m 201.80755,107.3406 c -18.41254,4.7762 -24.25997,-7.7231 -33.08147,-21.0815 -12.11843,-18.351 -20.6263,-38.6239 -32.37099,-57.1661 -3.60818,-5.6963 -5.51915,-12.7626 -10.85287,-17.0548 l 1.00401,-4.0127 c 11.2778,2.9747 20.28062,15.0573 26.7715,24.0733 11.95022,16.5993 21.90681,33.7258 32.38808,51.1654 4.99497,8.3111 11.87577,15.3981 16.14174,24.0764 M 308.67594,1509.131 c 29.0173,22.9862 75.3077,15.4335 109.4379,12.0382 -5.936,9.956 -18.0678,12.273 -28.1125,15.8605 -20.1332,7.1906 -38.5213,16.0824 -60.241,18.4141 -6.2135,0.6671 -23.7894,3.6981 -28.1125,-1.1696 l -11.0442,-2.0063 c 1.7758,-13.4008 8.7352,-33.2037 18.0723,-43.1369 m 320.2816,3.0095 c 12.3971,25.2417 25.1633,49.2866 11.894,77.2451 -3.0229,6.3693 -6.744,17.7612 -14.9208,18.9072 -8.1308,1.1397 -13.9772,-7.589 -19.8696,-11.7951 -13.4969,-9.6341 -24.6149,-19.0603 -32.0294,-34.198 -1.9668,-4.0157 -5.5346,-9.1507 -4.931,-13.8697 0.5336,-4.1723 5.8175,-6.5129 7.6479,-10.2067 h 4.0161 v -3.0096 l 16.0642,-8.6617 32.1286,-14.4115 m 269.07674,25.0796 v 1.0032 l -25.1005,-7.9828 -47.18878,-11.0777 v -3.0095 c 8.31004,-3.0207 17.66425,0.3455 26.10445,2.2617 18.92713,4.2976 31.10693,6.0818 46.18483,18.8051 m -139.55846,-22.07 c 19.4385,27.3144 34.10688,57.5317 49.19686,87.2769 l -28.11249,1.0032 -5.87538,-30.0955 -6.86616,-19.0605 -1.31471,-16.0509 c -2.96597,-5.8621 -9.64087,-16.6108 -7.02812,-23.0732 m -337.34988,7.3567 c 0.7765,0 0.1608,0.4994 -0.3347,0.3343 l 0.3347,-0.3343 m 529.11724,4.6815 1.004,1.0032 -1.004,-1.0032 m -346.38604,2.0063 1.004,1.0032 -1.004,-1.0032 m 218.8758,0 c 14.60734,6.4497 22.24031,22.1999 34.1366,32.1019 0.39446,3.7477 3.18088,6.088 5.38189,9.0433 5.54325,7.4431 10.65325,15.243 16.30445,22.6026 1.8628,2.4261 5.9507,5.8746 4.9635,9.3399 -1.369,4.8056 -9.8241,4.147 -13.5976,4.1575 v -1.0032 h 8.0321 v -1.0032 c -19.6815,-0.015 -31.83855,-33.0666 -40.37601,-47.9787 -3.30988,-5.7813 -9.01042,-11.1415 -8.82082,-18.2314 -3.53673,-1.796 -6.92101,-4.8084 -6.02411,-9.0287 m -417.6713,9.0287 -1.004,1.0032 1.004,-1.0032 m 509.03694,0 1.004,1.0032 -1.004,-1.0032 m -41.1648,2.0064 c 12.1587,3.8591 31.1981,7.3154 34.1366,22.07 l -26.1044,-15.6577 -8.0322,-6.4123 m -470.88424,1.0031 c -2.9864,9.9787 -17.3611,18.1882 -23.9531,26.4079 -14.7105,18.3427 -29.3374,43.3552 -33.2759,66.8882 l -28.1124,-3.0096 -12.6169,-1.1827 -2.8478,-13.8643 -14.6558,-38.1217 4.016,3.0096 21.0844,-2.3826 30.1205,-6.6461 c 3.7336,-5.5124 12.4395,-6.4532 18.0328,-9.6966 13.4509,-7.7999 25.3598,-20.9031 42.2082,-21.4021 m -16.0643,7.0223 2.0081,2.0064 v -2.0064 h -2.0081 m 528.11334,54.1719 c -7.4025,1.1773 -12.9441,-1.111 -19.0764,-5.0159 l 1.004,-2.0064 v -1.0031 l -3.012,1.0031 -36.14464,-45.1432 c 16.15524,4.5832 31.45354,24.7444 43.58414,35.7778 5.1001,4.6389 11.7067,9.5191 13.6449,16.3877 m -535.14144,-49.156 1.004,1.0032 -1.004,-1.0032 m -26.1044,5.016 c -15.7951,16.1048 -47.3172,10.2253 -66.2651,19.0604 -1.1426,-3.8621 -2.4436,-15.2062 1.5942,-17.9148 3.6585,-2.4541 16.144,2.8683 20.4941,3.4446 14.8473,1.9669 29.449,-3.9583 44.1768,-4.5902 m 533.13334,2.0063 -3.0121,-2.0063 3.0121,2.0063 m -55.89036,2.6751 0.33471,0.6689 -0.33471,-0.6689 m 79.98676,9.3631 9.0361,20.0637 -32.1285,-29.0923 c 7.141,-2.7756 15.9578,7.5389 23.0924,9.0286 m 94.37752,-3.0095 c -7.73946,10.8557 -22.88722,18.2486 -32.55062,27.8786 -3.5746,3.5622 -8.4938,8.356 -13.6341,8.236 l -6.0241,5.0159 c 8.6952,-22.6248 25.9453,-44.6266 52.20882,-41.1305 m 37.1486,9.0286 c -7.9739,5.684 -20.1075,8.0876 -29.1165,12.248 -13.77176,6.3599 -25.81342,17.2024 -41.16452,19.8539 8.2077,-15.4856 27.98706,-21.4015 39.15652,-33.1051 11.001,0.5605 20.9038,-6.0994 31.1245,1.0032 m -83.33332,6.0191 c -2.4262,6.2676 -8.1719,13.7167 -14.0562,17.0541 -0.951,5.1251 -6.064,8.2642 -11.0442,9.0287 3.0969,-5.9647 9.968,-15.4873 17.0683,-16.0509 -3.2044,-5.2569 3.4164,-8.9254 8.0321,-10.0319 m -308.23334,6.0191 c 2.6873,11.9369 0.852,24.2183 -0.7135,36.1146 -0.7898,6.0016 -0.4871,12.017 -4.3066,17.0541 2.5174,3.9624 -1.1922,16.7629 -6.0241,18.0573 l -3.0121,-3.0095 -11.0442,-42.1337 c 12.1134,-2.434 17.7385,-16.3211 23.0924,-26.0828 h 2.0081 m 340.36194,4.0128 1.004,1.0031 -1.004,-1.0031 m 7.02806,0 1.004,1.0031 -1.004,-1.0031 m -117.46996,20.0636 -2.0081,4.0128 h 4.0161 l 2.008,33.105 -30.83398,-23.879 -8.57214,-7.8931 9.28563,-2.4259 26.10449,-2.9198 m -2.0081,133.4234 -1.004,5.0159 2.008,-1.0032 v 5.016 c -6.1843,-3.1171 -5.5167,-8.5875 -8.1142,-14.095 -5.3726,-11.3911 -16.939,-24.9136 -18.99423,-37.0674 l -19.31961,-24.6229 -38.375,-38.8277 -16.69099,-15.9302 0.0883,-10.9057 c 7.23378,0.6503 14.54882,4.7345 21.08437,7.8064 22.36759,10.5133 47.68869,35.9196 57.7364,58.4037 5.38459,12.0492 10.73526,26.3193 13.80066,39.1242 2.0967,8.7583 3.3554,19.1383 7.7803,27.0859 m 5.0201,-80.2547 c -5.3476,0.8033 -10.3302,-3.254 -15.0564,-5.5941 -13.3816,-6.6256 -23.59489,-13.9558 -34.14124,-24.4254 -3.5637,-3.5378 -9.49484,-6.3139 -11.0434,-11.111 -6.37395,0.4389 -12.03044,-4.7191 -15.06026,-10.0318 21.11047,2.8427 40.26794,19.2975 57.2182,31.0994 6.7728,4.7157 16.2484,11.7461 18.0831,20.0629 M 387.99334,1618.478 v 3.0095 h 1.004 l -1.004,-3.0095 m 409.63916,7.0222 1.00402,1.0032 -1.00402,-1.0032 m 111.44598,10.0319 c 5.6095,0.7014 9.1865,5.2161 13.3497,8.7375 11.0555,9.3515 29.9483,26.8612 25.807,43.428 l -9.0362,-5.0159 c -2.9399,-6.6311 -8.0472,-9.3651 -12.6222,-14.5145 -7.2995,-8.2157 -18.8131,-25.2391 -21.5144,-35.6447 l 4.0161,3.0096 m -554.21774,-2.0064 1.004,1.0032 -1.004,-1.0032 m 711.84846,13.0414 v 1.0032 c -15.2007,-0.01 -29.156,-0.6713 -44.1768,3.0451 -14.8969,3.6857 -24.96076,12.3244 -40.16062,4.6692 -5.9988,-3.0212 -17.5558,-3.5194 -20.0804,-10.7239 33.49266,-6.2349 72.43072,-13.1169 104.41782,2.0064 m -166.66692,52.1655 c -8.3538,-17.6881 -10.3239,-40.9027 -6.0241,-60.191 15.1903,7.743 15.8229,29.5996 13.2955,44.1401 -0.9063,5.2139 -1.7452,14.1293 -7.2714,16.0509 m -118.47406,-56.1782 16.77777,14.4904 23.03818,23.1429 18.41707,22.5577 c 2.07177,10.4025 10.93034,21.3187 16.3765,30.3819 9.63224,16.0292 20.77214,38.19 20.77214,56.895 l -4.0161,-1.0032 c -0.1268,-9.9842 -10.23188,-21.7137 -15.22991,-30.0955 -14.77605,-24.7794 -33.92046,-52.3674 -54.99006,-72.2299 -11.18692,-10.5461 -22.22866,-17.2072 -22.22866,-33.1043 0,-4.1652 -1.56215,-7.4915 1.08307,-11.035 m -277.10888,3.0095 c -2.5481,13.7144 -0.2831,28.2053 -0.9653,42.1337 -0.345,7.0458 -1.5364,17.0019 -8.0708,21.0669 0,-14.1709 -1.9244,-28.1711 -2.0088,-42.1337 -0.041,-6.8422 -0.6463,-12.1906 6.0248,-16.051 l -1.004,-3.0095 6.0241,-2.0064 m -14.0562,1.0032 -5.0201,8.0255 -2.0081,-1.0032 c -5.428,12.042 -27.1311,25.7361 -39.1566,31.0987 2.0868,-8.7692 16.1584,-22.5577 25.1004,-24.0764 3.7873,-6.6932 13.658,-12.2741 21.0844,-14.0446 m 459.84004,12.0382 -1.004,1.0032 1.004,-1.0032 m 1.004,3.0095 -1.004,1.0032 1.004,-1.0032 m 67.26912,37.1178 c -14.4979,-1.4533 -30.57992,-16.8527 -40.17532,-27.1277 -3.1146,-3.3351 -6.943,-4.7738 -9.0215,-8.9869 19.9676,0.2224 38.61552,21.1033 49.19682,36.1146 m -390.56276,-32.1018 1.004,1.0031 -1.004,-1.0031 m -142.5705,4.0127 c 1.911,6.4597 0.637,13.3974 1.0939,20.0637 1.2923,18.8563 2.9202,39.9753 -18.1622,49.1559 -1.7948,-5.0692 1.027,-9.7922 1.2628,-15.0477 0.6668,-14.8673 1.0966,-46.1275 15.8055,-54.1719 m 403.61504,30.0955 9.0362,20.0637 -11.2759,-15.5354 -22.86072,-34.6238 c 13.48862,1.681 27.02412,15.9383 25.10042,30.0955 m 183.73522,10.0318 c -4.3798,2.9895 -9.9651,1.8311 -15.0603,2.0458 -21.7191,0.9154 -39.7283,-19.1832 -48.1928,-38.1604 25.8546,1.323 42.9125,23.0592 63.2531,36.1146 m -99.39772,-29.0923 1.004,1.0032 -1.004,-1.0032 m -508.03294,1.0032 -13.0522,16.0509 -19.0763,13.0414 c -1.8419,-11.6923 21.7006,-27.5398 32.1285,-29.0923 m 452.81194,0 c 3.1214,17.5609 9.3142,37.0958 5.0201,55.1751 h -2.008 c -4.6664,-6.0972 -14.7576,-16.7961 -14.5528,-25.0796 0.1298,-5.2486 4.997,-11.0228 6.6059,-16.0509 1.6402,-5.1262 1.3287,-9.6744 4.9348,-14.0446 m 14.0563,3.0095 c 4.4722,1.8983 6.786,4.3097 8.0321,9.0287 l 10.0402,4.0127 c 2.6093,11.5392 7.6318,32.0847 1.004,43.1369 l -12.9237,-37.1178 -6.1526,-19.0605 m -394.57894,2.0064 c 7.7228,16.0344 -3.3168,34.9303 -4.0161,51.1624 h -1.004 c -5.5995,-18.1949 -1.6311,-33.2381 3.0121,-51.1624 h 2.008 m 255.02048,2.3408 0.33464,0.3343 c -0.49557,0.1651 -1.11107,-0.3343 -0.33464,-0.3343 m 5.02008,8.6942 c 10.2174,0.7696 16.5875,13.734 22.56485,20.9918 15.67239,19.0294 29.5983,40.1448 40.57048,62.233 3.24118,6.5248 9.01015,12.9486 10.72655,20.1031 2.2866,9.5308 -6.198,19.2779 -4.5847,29.0923 -8.19572,-4.1214 -13.54219,-20.743 -18.53709,-28.511 -8.93928,-13.902 -16.05515,-28.8524 -25.82091,-42.2893 -10.797,-14.8558 -28.11048,-33.2073 -24.91918,-53.5944 -4.21051,-3.1566 -5.53655,-10.0257 -5.02008,-15.0478 3.72756,1.4914 5.63448,2.8855 5.02008,7.0223 m -244.98026,-3.0095 h 1.004 c 4.4814,9.5279 24.4257,23.4234 19.0763,35.1114 h 3.0121 v 2.0064 c -10.4619,-4.8447 -30.0924,-24.0968 -23.0924,-37.1178 m 215.86375,3.0095 -5.93426,44.1401 1.00328,77.2451 3.54041,42.1337 6.41066,42.1337 h -1.00402 c -14.87102,-45.5871 -17.0683,-90.5258 -17.0683,-138.4393 0,-15.3991 -4.07293,-37.4763 0.6546,-52.1261 1.70041,-5.2691 6.51398,-10.3219 9.38558,-15.0872 h 3.01205 m 180.72319,7.0223 1.004,1.0032 -1.004,-1.0032 m -495.98474,1.0032 c -6.5859,18.2486 -16.4631,36.7885 -19.0763,56.1783 h -2.008 c -1.5897,-9.3809 -5.4407,-24.0555 -0.6895,-33.0509 4.6925,-8.8843 14.1028,-14.8751 19.7658,-23.1274 h 2.008 m -10.0402,52.1655 16.0643,-47.1496 c 6.3325,2.1003 3.1173,10.8519 2.4341,16.0509 -0.6431,4.8946 1.2689,10.2917 -0.022,15.0084 -2.117,7.7325 -11.885,12.8761 -18.4759,16.0903 m 62.2491,-42.1337 v 3.0096 h 1.004 l -1.004,-3.0096 m 429.71954,1.0032 12.0482,46.1464 c -17.1185,-7.9816 -18.1015,-30.148 -14.0562,-46.1464 h 2.008 m 99.06292,4.3472 0.6694,0.3343 -0.6694,-0.3343 m -488.62176,2.6751 8.7302,37.1178 15.3663,38.1209 c -10.0784,-2.8005 -14.4171,-13.5224 -18.9416,-21.8997 -9.0207,-16.7027 -16.2511,-34.8356 -5.1549,-53.339 m 200.80356,0 0.0395,71.226 3.97655,63.2005 c -7.46346,-6.6945 -9.07648,-16.9046 -11.55546,-26.0827 -6.53801,-24.2061 -7.76134,-53.627 -2.83698,-78.2483 1.81023,-9.0508 0.44943,-25.9619 10.37637,-30.0955 m -188.75534,4.0127 c 14.9404,11.6384 24.0836,22.8048 24.0964,42.1337 h -1.004 c -6.7328,-9.6619 -20.4082,-19.7345 -21.0843,-32.1018 h -3.0121 l 1.004,-10.0319 m 337.34994,6.0191 15.8016,32.1019 7.2908,14.0446 -2.008,5.0159 4.016,5.0159 -18.0723,-12.0382 -5.2215,-31.0987 -1.8066,-13.0414 m -25.1005,3.0096 1.004,1.0032 -1.004,-1.0032 m -140.56243,3.0095 -3.16391,37.6953 0.15185,38.5467 h -2.00805 c -12.1037,-25.4574 -10.5989,-47.1896 -10.0402,-74.2356 l 15.06031,-2.0064 m 156.62673,4.0128 5.0201,20.0636 c -5.6883,-3.6627 -6.497,-13.9204 -5.0201,-20.0636 m -377.51064,1.0031 1.004,1.0032 -1.004,-1.0032 m 453.81594,8.0255 v 4.0127 l 5.0201,1.0032 17.0683,36.1146 1.004,4.0128 c -5.0059,-1.4304 -7.3962,-5.5076 -11.2184,-8.7925 -4.2221,-3.6288 -10.3977,-6.324 -13.5628,-11.0197 -3.3978,-5.0406 -1.0682,-19.3776 -0.3192,-25.3311 h 2.008 m -43.1727,4.0127 14.0562,21.0669 h 1.0041 l 1.004,-2.0064 17.0683,24.0764 -1.004,3.0096 5.02,7.0223 c -6.3387,-1.436 -19.7905,-6.6139 -22.0883,-13.0414 l -5.0333,-2.1581 -1.8059,-13.8534 -6.2131,-19.0999 h -3.012 l 1.004,-5.016 m -339.35794,5.016 1.004,1.0031 -1.004,-1.0031 m 234.9401,1.0031 c 23.82208,37.21 63.28514,82.7922 49.19686,130.4139 h -1.00401 c -4.76627,-14.0636 -7.66918,-39.4128 -18.07232,-50.1592 -3.04809,-14.2397 -12.95859,-31.9104 -21.12696,-43.9697 -7.42062,-10.9555 -15.11407,-22.0758 -11.0016,-36.285 h 2.00803 m -244.9803,5.016 c 5.8242,8.5202 12.1681,18.2008 9.0362,29.0923 h -1.0041 l -11.0441,-29.0923 h 3.012 m 296.18524,0 v 2.0063 h 2.008 v -2.0063 h -2.008 m -45.18083,9.0286 1.00402,1.0032 -1.00402,-1.0032 m 130.52233,3.0096 c 10.3346,7.9658 19.1231,17.4696 29.0312,25.9666 4.2849,3.6746 9.8749,8.2847 10.1254,14.1607 l -8.0321,-4.0127 c -13.1778,2.8542 -20.0335,-13.6163 -25.7636,-23.0586 -2.4443,-4.0278 -6.995,-8.0868 -5.3609,-13.056 m -2.0081,1.0031 v 2.0064 l -2.008,-2.0064 h 2.008 m -408.63514,12.0382 1.004,1.0032 -1.004,-1.0032 m 280.12091,0 1.00402,1.0032 -1.00402,-1.0032 m 146.58653,0 -1.004,1.0032 1.004,-1.0032 m -401.27234,1.6719 0.3347,0.669 -0.3347,-0.669 m 4.3508,6.0191 -0.3347,0.669 0.3347,-0.669 m 267.40331,8.36 1.00401,1.0032 z"
       id="path1" />
  </g>
</svg>
